ISO-10303-21;
HEADER;
FILE_DESCRIPTION (( 'STEP AP214' ),
    '1' );
FILE_NAME ('MLF1608A1R2J.STEP',
    '2023-04-20T17:51:18',
    ( '' ),
    ( '' ),
    'SwSTEP 2.0',
    'SolidWorks 2021',
    '' );
FILE_SCHEMA (( 'AUTOMOTIVE_DESIGN' ));
ENDSEC;

DATA;
#1 = EDGE_CURVE ( 'NONE', #491, #165, #693, .T. ) ;
#2 = ORIENTED_EDGE ( 'NONE', *, *, #383, .T. ) ;
#3 = LINE ( 'NONE', #415, #768 ) ;
#4 = EDGE_CURVE ( 'NONE', #1242, #272, #1109, .T. ) ;
#5 = VECTOR ( 'NONE', #927, 1000.000000000000000 ) ;
#6 = LINE ( 'NONE', #482, #109 ) ;
#7 = AXIS2_PLACEMENT_3D ( 'NONE', #520, #314, #324 ) ;
#8 = DIRECTION ( 'NONE',  ( -1.000000000000000000, 0.000000000000000000, -1.807003620809175125E-16 ) ) ;
#9 = AXIS2_PLACEMENT_3D ( 'NONE', #22, #815, #311 ) ;
#10 = VERTEX_POINT ( 'NONE', #23 ) ;
#11 = DIRECTION ( 'NONE',  ( -0.000000000000000000, -1.000000000000000000, -0.000000000000000000 ) ) ;
#12 = DIRECTION ( 'NONE',  ( -1.000000000000000000, -0.000000000000000000, -0.000000000000000000 ) ) ;
#13 = CARTESIAN_POINT ( 'NONE',  ( -0.5000000000000000000, 0.9100000000000000311, 0.3700000000000001621 ) ) ;
#14 = VERTEX_POINT ( 'NONE', #13 ) ;
#15 = ORIENTED_EDGE ( 'NONE', *, *, #946, .F. ) ;
#16 = CARTESIAN_POINT ( 'NONE',  ( 0.5000000000000000000, 0.9100000000000000311, -0.3599999999999998757 ) ) ;
#17 = EDGE_CURVE ( 'NONE', #1200, #26, #316, .T. ) ;
#18 = DIRECTION ( 'NONE',  ( 1.807003620809175125E-16, 0.000000000000000000, -1.000000000000000000 ) ) ;
#19 = ORIENTED_EDGE ( 'NONE', *, *, #389, .F. ) ;
#20 = DIRECTION ( 'NONE',  ( -1.000000000000000000, 0.000000000000000000, 3.614007241618348771E-16 ) ) ;
#21 = ORIENTED_EDGE ( 'NONE', *, *, #769, .T. ) ;
#22 = CARTESIAN_POINT ( 'NONE',  ( 1.657454102761746650, 0.9100000000000000311, 0.3600000000000001532 ) ) ;
#23 = CARTESIAN_POINT ( 'NONE',  ( 0.5000000000000000000, 0.9200000000000000400, 0.3600000000000001532 ) ) ;
#24 = VECTOR ( 'NONE', #282, 1000.000000000000000 ) ;
#25 = COLOUR_RGB ( '',0.7921568627450980005, 0.8196078431372548767, 0.9333333333333333481 ) ;
#26 = VERTEX_POINT ( 'NONE', #224 ) ;
#27 = VECTOR ( 'NONE', #1050, 1000.000000000000000 ) ;
#28 = ADVANCED_FACE ( 'NONE', ( #592 ), #198, .T. ) ;
#29 = LINE ( 'NONE', #409, #639 ) ;
#30 = SURFACE_SIDE_STYLE ('',( #708 ) ) ;
#31 = PLANE ( 'NONE',  #134 ) ;
#32 = ORIENTED_EDGE ( 'NONE', *, *, #998, .T. ) ;
#33 = ADVANCED_FACE ( 'NONE', ( #416 ), #715, .F. ) ;
#34 =( LENGTH_UNIT ( ) NAMED_UNIT ( * ) SI_UNIT ( .MILLI., .METRE. ) );
#35 = UNCERTAINTY_MEASURE_WITH_UNIT (LENGTH_MEASURE( 1.000000000000000082E-05 ), #1022, 'distance_accuracy_value', 'NONE');
#36 =( NAMED_UNIT ( * ) SI_UNIT ( $, .STERADIAN. ) SOLID_ANGLE_UNIT ( ) );
#37 = DIRECTION ( 'NONE',  ( 1.000000000000000000, 0.000000000000000000, -0.000000000000000000 ) ) ;
#38 = EDGE_LOOP ( 'NONE', ( #1258, #893, #1062, #819 ) ) ;
#39 = EDGE_CURVE ( 'NONE', #600, #10, #709, .T. ) ;
#40 = DIRECTION ( 'NONE',  ( 1.000000000000000000, 0.000000000000000000, 0.000000000000000000 ) ) ;
#41 = ADVANCED_FACE ( 'NONE', ( #1101 ), #325, .T. ) ;
#42 = DIRECTION ( 'NONE',  ( -1.807003620809174139E-16, 0.000000000000000000, -1.000000000000000000 ) ) ;
#43 = CARTESIAN_POINT ( 'NONE',  ( 0.8000000000000000444, 0.03999999999999999389, 0.3600000000000000977 ) ) ;
#44 = DIRECTION ( 'NONE',  ( 1.000000000000000000, 0.000000000000000000, -1.355252715606880789E-16 ) ) ;
#45 = CARTESIAN_POINT ( 'NONE',  ( 0.000000000000000000, 0.000000000000000000, 0.000000000000000000 ) ) ;
#46 = AXIS2_PLACEMENT_3D ( 'NONE', #148, #940, #348 ) ;
#47 = VERTEX_POINT ( 'NONE', #994 ) ;
#48 = AXIS2_PLACEMENT_3D ( 'NONE', #398, #714, #125 ) ;
#49 = VECTOR ( 'NONE', #1056, 1000.000000000000000 ) ;
#50 = CARTESIAN_POINT ( 'NONE',  ( 0.7600000000000000089, 0.03999999999999999389, -0.3599999999999999867 ) ) ;
#51 = PRESENTATION_LAYER_ASSIGNMENT (  '', '', ( #875 ) ) ;
#52 = DIRECTION ( 'NONE',  ( 1.000000000000000000, 0.000000000000000000, 0.000000000000000000 ) ) ;
#53 = DIRECTION ( 'NONE',  ( 0.000000000000000000, 0.000000000000000000, 1.000000000000000000 ) ) ;
#54 = SHAPE_DEFINITION_REPRESENTATION ( #718, #305 ) ;
#55 = VERTEX_POINT ( 'NONE', #919 ) ;
#56 = PRESENTATION_STYLE_ASSIGNMENT (( #938 ) ) ;
#57 = CARTESIAN_POINT ( 'NONE',  ( -0.5000000000000000000, 0.9200000000000000400, -0.3599999999999998201 ) ) ;
#58 = EDGE_CURVE ( 'NONE', #607, #518, #798, .T. ) ;
#59 = DIRECTION ( 'NONE',  ( 0.000000000000000000, 0.000000000000000000, -1.000000000000000000 ) ) ;
#60 = ORIENTED_EDGE ( 'NONE', *, *, #335, .F. ) ;
#61 =( LENGTH_UNIT ( ) NAMED_UNIT ( * ) SI_UNIT ( .MILLI., .METRE. ) );
#62 = DIRECTION ( 'NONE',  ( 0.000000000000000000, -1.000000000000000000, 0.000000000000000000 ) ) ;
#63 = DIRECTION ( 'NONE',  ( 0.000000000000000000, 0.000000000000000000, -1.000000000000000000 ) ) ;
#64 = ORIENTED_EDGE ( 'NONE', *, *, #581, .T. ) ;
#65 = AXIS2_PLACEMENT_3D ( 'NONE', #752, #545, #53 ) ;
#66 = FACE_OUTER_BOUND ( 'NONE', #1199, .T. ) ;
#67 = CIRCLE ( 'NONE', #951, 0.009999999999999972453 ) ;
#68 = VECTOR ( 'NONE', #1071, 1000.000000000000000 ) ;
#69 = DIRECTION ( 'NONE',  ( -0.000000000000000000, -0.000000000000000000, -1.000000000000000000 ) ) ;
#70 = CARTESIAN_POINT ( 'NONE',  ( -0.5000000000000000000, 0.9100000000000000311, -0.3599999999999998757 ) ) ;
#71 = ORIENTED_EDGE ( 'NONE', *, *, #1, .F. ) ;
#72 = EDGE_CURVE ( 'NONE', #285, #417, #525, .T. ) ;
#73 = CARTESIAN_POINT ( 'NONE',  ( 0.8000000000000000444, 0.9100000000000000311, 0.3600000000000000977 ) ) ;
#74 = FACE_OUTER_BOUND ( 'NONE', #173, .T. ) ;
#75 = SURFACE_SIDE_STYLE ('',( #556 ) ) ;
#76 = CARTESIAN_POINT ( 'NONE',  ( -0.7600000000000000089, 0.03999999999999999389, -0.3599999999999999867 ) ) ;
#77 = ORIENTED_EDGE ( 'NONE', *, *, #345, .F. ) ;
#78 = VECTOR ( 'NONE', #509, 1000.000000000000000 ) ;
#79 = FACE_OUTER_BOUND ( 'NONE', #300, .T. ) ;
#80 = EDGE_CURVE ( 'NONE', #165, #740, #277, .T. ) ;
#81 = DIRECTION ( 'NONE',  ( -1.000000000000000000, -0.000000000000000000, -0.000000000000000000 ) ) ;
#82 = CARTESIAN_POINT ( 'NONE',  ( -0.7600000000000000089, 0.9499999999999999556, -0.3999999999999999667 ) ) ;
#83 = ADVANCED_FACE ( 'NONE', ( #400 ), #31, .F. ) ;
#84 = EDGE_LOOP ( 'NONE', ( #866, #1170, #254, #853 ) ) ;
#85 = DIRECTION ( 'NONE',  ( 1.000000000000000000, 0.000000000000000000, 1.807003620809175125E-16 ) ) ;
#86 = AXIS2_PLACEMENT_3D ( 'NONE', #448, #652, #859 ) ;
#87 = DIRECTION ( 'NONE',  ( -0.000000000000000000, 1.000000000000000000, 0.000000000000000000 ) ) ;
#88 = CARTESIAN_POINT ( 'NONE',  ( 0.7600000000000000089, 0.9100000000000000311, 0.4000000000000000777 ) ) ;
#89 = CIRCLE ( 'NONE', #553, 0.03999999999999999389 ) ;
#90 = DIRECTION ( 'NONE',  ( 1.807003620809174139E-16, 0.000000000000000000, -1.000000000000000000 ) ) ;
#91 = ORIENTED_EDGE ( 'NONE', *, *, #700, .T. ) ;
#92 = VECTOR ( 'NONE', #140, 1000.000000000000000 ) ;
#93 = CARTESIAN_POINT ( 'NONE',  ( -0.8000000000000000444, 0.03999999999999999389, 0.3600000000000000977 ) ) ;
#94 = ORIENTED_EDGE ( 'NONE', *, *, #530, .T. ) ;
#95 = CARTESIAN_POINT ( 'NONE',  ( 0.7600000000000000089, 0.9100000000000000311, -0.3599999999999999867 ) ) ;
#96 = DIRECTION ( 'NONE',  ( 0.000000000000000000, 0.000000000000000000, 1.000000000000000000 ) ) ;
#97 = DIRECTION ( 'NONE',  ( 0.000000000000000000, 1.000000000000000000, 0.000000000000000000 ) ) ;
#98 = EDGE_CURVE ( 'NONE', #26, #1106, #1193, .T. ) ;
#99 = VERTEX_POINT ( 'NONE', #299 ) ;
#100 = ORIENTED_EDGE ( 'NONE', *, *, #484, .F. ) ;
#101 = CYLINDRICAL_SURFACE ( 'NONE', #207, 0.03999999999999999389 ) ;
#102 = PLANE ( 'NONE',  #550 ) ;
#103 = DIRECTION ( 'NONE',  ( 0.000000000000000000, 0.000000000000000000, 1.000000000000000000 ) ) ;
#104 = ORIENTED_EDGE ( 'NONE', *, *, #1008, .T. ) ;
#105 = ORIENTED_EDGE ( 'NONE', *, *, #1079, .F. ) ;
#106 = DIRECTION ( 'NONE',  ( 0.000000000000000000, 0.000000000000000000, -1.000000000000000000 ) ) ;
#107 = AXIS2_PLACEMENT_3D ( 'NONE', #922, #44, #843 ) ;
#108 = PLANE ( 'NONE',  #1183 ) ;
#109 = VECTOR ( 'NONE', #986, 1000.000000000000000 ) ;
#110 = CARTESIAN_POINT ( 'NONE',  ( 0.7600000000000000089, 0.000000000000000000, -0.3999999999999999667 ) ) ;
#111 = ORIENTED_EDGE ( 'NONE', *, *, #1054, .F. ) ;
#112 = ORIENTED_EDGE ( 'NONE', *, *, #17, .F. ) ;
#113 = ADVANCED_FACE ( 'NONE', ( #694 ), #1198, .T. ) ;
#114 = DIRECTION ( 'NONE',  ( -0.000000000000000000, 0.000000000000000000, -1.000000000000000000 ) ) ;
#115 = FILL_AREA_STYLE ('',( #507 ) ) ;
#116 = CARTESIAN_POINT ( 'NONE',  ( 0.5000000000000000000, 0.02999999999999999889, 0.3600000000000003197 ) ) ;
#117 = EDGE_LOOP ( 'NONE', ( #551, #1194, #861, #690 ) ) ;
#118 = ORIENTED_EDGE ( 'NONE', *, *, #389, .T. ) ;
#119 = EDGE_CURVE ( 'NONE', #967, #1200, #860, .T. ) ;
#120 = CARTESIAN_POINT ( 'NONE',  ( 0.5000000000000000000, 0.000000000000000000, -0.3599999999999997091 ) ) ;
#121 = EDGE_CURVE ( 'NONE', #301, #575, #1003, .T. ) ;
#122 = CARTESIAN_POINT ( 'NONE',  ( -0.5000000000000001110, 0.03999999999999999389, 0.3600000000000001532 ) ) ;
#123 = ORIENTED_EDGE ( 'NONE', *, *, #345, .T. ) ;
#124 = CARTESIAN_POINT ( 'NONE',  ( -0.7600000000000000089, 0.9100000000000000311, -0.3999999999999999667 ) ) ;
#125 = DIRECTION ( 'NONE',  ( -1.000000000000000000, 0.000000000000000000, 0.000000000000000000 ) ) ;
#126 = DIRECTION ( 'NONE',  ( 0.000000000000000000, 0.000000000000000000, 1.000000000000000000 ) ) ;
#127 = AXIS2_PLACEMENT_3D ( 'NONE', #43, #643, #842 ) ;
#128 = STYLED_ITEM ( 'NONE', ( #812 ), #736 ) ;
#129 = ORIENTED_EDGE ( 'NONE', *, *, #227, .T. ) ;
#130 = CARTESIAN_POINT ( 'NONE',  ( -0.5000000000000000000, 0.02999999999999998501, 0.3600000000000001532 ) ) ;
#131 = CARTESIAN_POINT ( 'NONE',  ( 1.657454102761746650, 0.04000000000000021594, -0.3699999999999998290 ) ) ;
#132 = VERTEX_POINT ( 'NONE', #1028 ) ;
#133 = ADVANCED_FACE ( 'NONE', ( #733 ), #253, .T. ) ;
#134 = AXIS2_PLACEMENT_3D ( 'NONE', #1213, #18, #8 ) ;
#135 = CARTESIAN_POINT ( 'NONE',  ( 1.657454102761746650, 0.02999999999999998501, 0.3600000000000001532 ) ) ;
#136 = DIRECTION ( 'NONE',  ( 1.000000000000000000, -0.000000000000000000, 1.355252715606880789E-16 ) ) ;
#137 = DIRECTION ( 'NONE',  ( 0.000000000000000000, -1.000000000000000000, 0.000000000000000000 ) ) ;
#138 = VERTEX_POINT ( 'NONE', #342 ) ;
#139 = CARTESIAN_POINT ( 'NONE',  ( 0.5000000000000000000, 0.000000000000000000, -0.3599999999999998757 ) ) ;
#140 = DIRECTION ( 'NONE',  ( -1.355252715606880789E-16, 0.000000000000000000, -1.000000000000000000 ) ) ;
#141 = AXIS2_PLACEMENT_3D ( 'NONE', #1075, #167, #560 ) ;
#142 = ORIENTED_EDGE ( 'NONE', *, *, #845, .F. ) ;
#143 = VECTOR ( 'NONE', #933, 1000.000000000000000 ) ;
#144 = CIRCLE ( 'NONE', #265, 0.03999999999999999389 ) ;
#145 = CIRCLE ( 'NONE', #1266, 0.01000000000000002623 ) ;
#146 = EDGE_CURVE ( 'NONE', #607, #272, #402, .T. ) ;
#147 = FACE_OUTER_BOUND ( 'NONE', #1270, .T. ) ;
#148 = CARTESIAN_POINT ( 'NONE',  ( -0.5000000000000000000, 0.03999999999999999389, -0.3599999999999998757 ) ) ;
#149 = ORIENTED_EDGE ( 'NONE', *, *, #769, .F. ) ;
#150 = CARTESIAN_POINT ( 'NONE',  ( 0.5000000000000000000, 0.9100000000000000311, -0.3699999999999998290 ) ) ;
#151 = CARTESIAN_POINT ( 'NONE',  ( 6.505213034913035232E-17, 0.9100000000000000311, 0.3600000000000002642 ) ) ;
#152 = CARTESIAN_POINT ( 'NONE',  ( 0.8000000000000000444, 0.9100000000000000311, 0.4000000000000000777 ) ) ;
#153 = ORIENTED_EDGE ( 'NONE', *, *, #1179, .F. ) ;
#154 = ORIENTED_EDGE ( 'NONE', *, *, #530, .F. ) ;
#155 = LINE ( 'NONE', #434, #372 ) ;
#156 = CARTESIAN_POINT ( 'NONE',  ( 0.5000000000000000000, 0.9100000000000000311, 0.3600000000000001532 ) ) ;
#157 = ADVANCED_FACE ( 'NONE', ( #1043 ), #1233, .T. ) ;
#158 = EDGE_LOOP ( 'NONE', ( #716, #181, #154 ) ) ;
#159 = STYLED_ITEM ( 'NONE', ( #980 ), #310 ) ;
#160 = CARTESIAN_POINT ( 'NONE',  ( 0.8000000000000000444, 0.9499999999999999556, -0.3999999999999999667 ) ) ;
#161 = AXIS2_PLACEMENT_3D ( 'NONE', #579, #565, #885 ) ;
#162 = AXIS2_PLACEMENT_3D ( 'NONE', #50, #925, #742 ) ;
#163 = CARTESIAN_POINT ( 'NONE',  ( 0.5000000000000000000, 0.04000000000000021594, -0.3999999999999998557 ) ) ;
#164 = DIRECTION ( 'NONE',  ( 1.000000000000000000, -0.000000000000000000, 3.614007241618348771E-16 ) ) ;
#165 = VERTEX_POINT ( 'NONE', #247 ) ;
#166 = ADVANCED_FACE ( 'NONE', ( #1129 ), #649, .F. ) ;
#167 = DIRECTION ( 'NONE',  ( 0.000000000000000000, 0.000000000000000000, 1.000000000000000000 ) ) ;
#168 = ORIENTED_EDGE ( 'NONE', *, *, #437, .T. ) ;
#169 = EDGE_CURVE ( 'NONE', #1207, #600, #918, .T. ) ;
#170 = CARTESIAN_POINT ( 'NONE',  ( -0.7600000000000000089, 0.9100000000000000311, 0.3600000000000000977 ) ) ;
#171 = CARTESIAN_POINT ( 'NONE',  ( 0.7600000000000000089, 0.9100000000000000311, 0.3600000000000000977 ) ) ;
#172 = CARTESIAN_POINT ( 'NONE',  ( -0.7600000000000000089, 0.9100000000000000311, -0.3599999999999999867 ) ) ;
#173 = EDGE_LOOP ( 'NONE', ( #1235, #1049, #258, #920 ) ) ;
#174 = CYLINDRICAL_SURFACE ( 'NONE', #828, 0.03999999999999999389 ) ;
#175 = ORIENTED_EDGE ( 'NONE', *, *, #308, .F. ) ;
#176 = DIRECTION ( 'NONE',  ( -1.000000000000000000, 0.000000000000000000, 0.000000000000000000 ) ) ;
#177 = DIRECTION ( 'NONE',  ( -0.000000000000000000, -1.000000000000000000, -0.000000000000000000 ) ) ;
#178 = DIRECTION ( 'NONE',  ( -0.000000000000000000, -1.000000000000000000, -0.000000000000000000 ) ) ;
#179 = ORIENTED_EDGE ( 'NONE', *, *, #898, .T. ) ;
#180 = DIRECTION ( 'NONE',  ( 0.000000000000000000, 1.000000000000000000, 0.000000000000000000 ) ) ;
#181 = ORIENTED_EDGE ( 'NONE', *, *, #146, .T. ) ;
#182 = CIRCLE ( 'NONE', #260, 0.03999999999999999389 ) ;
#183 = EDGE_CURVE ( 'NONE', #1188, #762, #745, .T. ) ;
#184 = CARTESIAN_POINT ( 'NONE',  ( -0.5000000000000001110, 0.000000000000000000, 0.4000000000000001332 ) ) ;
#185 = AXIS2_PLACEMENT_3D ( 'NONE', #291, #889, #773 ) ;
#186 = SURFACE_STYLE_USAGE ( .BOTH. , #75 ) ;
#187 = CIRCLE ( 'NONE', #471, 0.01000000000000002623 ) ;
#188 = FACE_OUTER_BOUND ( 'NONE', #602, .T. ) ;
#189 = ORIENTED_EDGE ( 'NONE', *, *, #1030, .T. ) ;
#190 = CARTESIAN_POINT ( 'NONE',  ( -0.5000000000000000000, 0.000000000000000000, -0.3599999999999998757 ) ) ;
#191 = ORIENTED_EDGE ( 'NONE', *, *, #1127, .T. ) ;
#192 = DIRECTION ( 'NONE',  ( 1.000000000000000000, 0.000000000000000000, -1.355252715606880789E-16 ) ) ;
#193 = CARTESIAN_POINT ( 'NONE',  ( 0.7600000000000000089, 0.000000000000000000, 0.3600000000000000977 ) ) ;
#194 = ORIENTED_EDGE ( 'NONE', *, *, #484, .T. ) ;
#195 = ORIENTED_EDGE ( 'NONE', *, *, #559, .T. ) ;
#196 = DIRECTION ( 'NONE',  ( 0.000000000000000000, 0.000000000000000000, 1.000000000000000000 ) ) ;
#197 = FACE_OUTER_BOUND ( 'NONE', #844, .T. ) ;
#198 = SPHERICAL_SURFACE ( 'NONE', #628, 0.04000000000000000083 ) ;
#199 = EDGE_CURVE ( 'NONE', #55, #1214, #1141, .T. ) ;
#200 = ORIENTED_EDGE ( 'NONE', *, *, #183, .T. ) ;
#201 = VERTEX_POINT ( 'NONE', #427 ) ;
#202 = EDGE_CURVE ( 'NONE', #403, #344, #644, .T. ) ;
#203 = DIRECTION ( 'NONE',  ( 0.000000000000000000, 0.000000000000000000, 1.000000000000000000 ) ) ;
#204 = PRESENTATION_LAYER_ASSIGNMENT (  '', '', ( #159 ) ) ;
#205 = DIRECTION ( 'NONE',  ( 0.000000000000000000, 0.000000000000000000, 1.000000000000000000 ) ) ;
#206 = LINE ( 'NONE', #817, #428 ) ;
#207 = AXIS2_PLACEMENT_3D ( 'NONE', #676, #266, #1180 ) ;
#208 = CARTESIAN_POINT ( 'NONE',  ( 0.7600000000000000089, 0.03999999999999999389, 0.4000000000000000777 ) ) ;
#209 = ORIENTED_EDGE ( 'NONE', *, *, #651, .F. ) ;
#210 = EDGE_CURVE ( 'NONE', #937, #983, #725, .T. ) ;
#211 = ORIENTED_EDGE ( 'NONE', *, *, #1204, .F. ) ;
#212 = DIRECTION ( 'NONE',  ( -0.000000000000000000, -1.000000000000000000, -0.000000000000000000 ) ) ;
#213 = EDGE_CURVE ( 'NONE', #740, #967, #833, .T. ) ;
#214 = CARTESIAN_POINT ( 'NONE',  ( -0.8000000000000000444, 0.03999999999999999389, 0.3600000000000000977 ) ) ;
#215 = DIRECTION ( 'NONE',  ( 0.000000000000000000, 0.000000000000000000, 1.000000000000000000 ) ) ;
#216 = ORIENTED_EDGE ( 'NONE', *, *, #756, .T. ) ;
#217 = CARTESIAN_POINT ( 'NONE',  ( 0.7600000000000000089, 0.9100000000000000311, 0.3600000000000000977 ) ) ;
#218 = CARTESIAN_POINT ( 'NONE',  ( -0.5000000000000000000, 0.03999999999999999389, -0.3599999999999998757 ) ) ;
#219 = LINE ( 'NONE', #1027, #226 ) ;
#220 = DIRECTION ( 'NONE',  ( 0.000000000000000000, 0.000000000000000000, -1.000000000000000000 ) ) ;
#221 = ORIENTED_EDGE ( 'NONE', *, *, #210, .T. ) ;
#222 = CARTESIAN_POINT ( 'NONE',  ( 0.5000000000000001110, 0.03999999999999999389, 0.4000000000000001332 ) ) ;
#223 = LINE ( 'NONE', #514, #288 ) ;
#224 = CARTESIAN_POINT ( 'NONE',  ( -0.5000000000000001110, 0.9499999999999999556, 0.3600000000000001532 ) ) ;
#225 = CIRCLE ( 'NONE', #1222, 0.03999999999999999389 ) ;
#226 = VECTOR ( 'NONE', #515, 1000.000000000000000 ) ;
#227 = EDGE_CURVE ( 'NONE', #575, #683, #312, .T. ) ;
#228 = EDGE_LOOP ( 'NONE', ( #233, #501, #1178, #123, #679, #908, #1132, #760 ) ) ;
#229 = VECTOR ( 'NONE', #916, 1000.000000000000000 ) ;
#230 = DIRECTION ( 'NONE',  ( -3.614007241618348771E-16, 0.000000000000000000, 1.000000000000000000 ) ) ;
#231 = LINE ( 'NONE', #1046, #595 ) ;
#232 = LINE ( 'NONE', #435, #1018 ) ;
#233 = ORIENTED_EDGE ( 'NONE', *, *, #1094, .F. ) ;
#234 = PLANE ( 'NONE',  #727 ) ;
#235 = AXIS2_PLACEMENT_3D ( 'NONE', #122, #612, #126 ) ;
#236 = CARTESIAN_POINT ( 'NONE',  ( -0.5000000000000000000, 0.9200000000000000400, -0.3599999999999998201 ) ) ;
#237 = CARTESIAN_POINT ( 'NONE',  ( -0.8000000000000000444, 0.03999999999999999389, 0.4000000000000000777 ) ) ;
#238 = ORIENTED_EDGE ( 'NONE', *, *, #335, .T. ) ;
#239 = PRODUCT_DEFINITION ( 'UNKNOWN', '', #881, #327 ) ;
#240 = CARTESIAN_POINT ( 'NONE',  ( 0.7600000000000000089, 0.9100000000000000311, -0.3599999999999999867 ) ) ;
#241 = PLANE ( 'NONE',  #46 ) ;
#242 = ORIENTED_EDGE ( 'NONE', *, *, #796, .T. ) ;
#243 = CIRCLE ( 'NONE', #369, 0.03999999999999999389 ) ;
#244 = AXIS2_PLACEMENT_3D ( 'NONE', #347, #743, #548 ) ;
#245 = EDGE_CURVE ( 'NONE', #280, #740, #1229, .T. ) ;
#246 = LINE ( 'NONE', #334, #392 ) ;
#247 = CARTESIAN_POINT ( 'NONE',  ( -0.7600000000000000089, 0.03999999999999999389, 0.4000000000000000777 ) ) ;
#248 = EDGE_LOOP ( 'NONE', ( #19, #960, #104, #1024 ) ) ;
#249 = CARTESIAN_POINT ( 'NONE',  ( 0.5000000000000000000, 0.9499999999999999556, -0.3599999999999997091 ) ) ;
#250 = ORIENTED_EDGE ( 'NONE', *, *, #245, .T. ) ;
#251 = ADVANCED_FACE ( 'NONE', ( #637 ), #444, .T. ) ;
#252 = DIRECTION ( 'NONE',  ( -1.000000000000000000, -0.000000000000000000, 3.614007241618348771E-16 ) ) ;
#253 = CYLINDRICAL_SURFACE ( 'NONE', #1131, 0.03999999999999999389 ) ;
#254 = ORIENTED_EDGE ( 'NONE', *, *, #308, .T. ) ;
#255 = CARTESIAN_POINT ( 'NONE',  ( -0.5000000000000000000, 0.9100000000000000311, 0.3700000000000001621 ) ) ;
#256 = SPHERICAL_SURFACE ( 'NONE', #516, 0.04000000000000000083 ) ;
#257 = EDGE_CURVE ( 'NONE', #1214, #1188, #1125, .T. ) ;
#258 = ORIENTED_EDGE ( 'NONE', *, *, #352, .F. ) ;
#259 = EDGE_CURVE ( 'NONE', #382, #165, #232, .T. ) ;
#260 = AXIS2_PLACEMENT_3D ( 'NONE', #385, #663, #96 ) ;
#261 = CIRCLE ( 'NONE', #915, 0.03999999999999999389 ) ;
#262 = DIRECTION ( 'NONE',  ( 3.614007241618348771E-16, 0.000000000000000000, 1.000000000000000000 ) ) ;
#263 = EDGE_LOOP ( 'NONE', ( #901, #380, #179, #200 ) ) ;
#264 = AXIS2_PLACEMENT_3D ( 'NONE', #533, #425, #642 ) ;
#265 = AXIS2_PLACEMENT_3D ( 'NONE', #240, #726, #52 ) ;
#266 = DIRECTION ( 'NONE',  ( 0.000000000000000000, -1.000000000000000000, 0.000000000000000000 ) ) ;
#267 = CARTESIAN_POINT ( 'NONE',  ( 1.657454102761746650, 0.04000000000000021594, 0.3700000000000001621 ) ) ;
#268 = DIRECTION ( 'NONE',  ( -1.000000000000000000, 0.000000000000000000, 0.000000000000000000 ) ) ;
#269 = ORIENTED_EDGE ( 'NONE', *, *, #337, .F. ) ;
#270 = AXIS2_PLACEMENT_3D ( 'NONE', #45, #952, #429 ) ;
#271 = CARTESIAN_POINT ( 'NONE',  ( -0.5000000000000001110, 0.000000000000000000, 0.3600000000000001532 ) ) ;
#272 = VERTEX_POINT ( 'NONE', #1135 ) ;
#273 = CARTESIAN_POINT ( 'NONE',  ( 0.5000000000000001110, 0.03999999999999999389, 0.3600000000000001532 ) ) ;
#274 = DIRECTION ( 'NONE',  ( 0.000000000000000000, 0.000000000000000000, -1.000000000000000000 ) ) ;
#275 = CYLINDRICAL_SURFACE ( 'NONE', #1058, 0.01000000000000002623 ) ;
#276 = ORIENTED_EDGE ( 'NONE', *, *, #659, .F. ) ;
#277 = CIRCLE ( 'NONE', #503, 0.03999999999999999389 ) ;
#278 = ADVANCED_FACE ( 'NONE', ( #625 ), #241, .F. ) ;
#279 = FACE_OUTER_BOUND ( 'NONE', #1104, .T. ) ;
#280 = VERTEX_POINT ( 'NONE', #1154 ) ;
#281 = CARTESIAN_POINT ( 'NONE',  ( 0.8000000000000000444, 0.9499999999999999556, 0.3600000000000000977 ) ) ;
#282 = DIRECTION ( 'NONE',  ( -1.000000000000000000, 0.000000000000000000, -3.614007241618348771E-16 ) ) ;
#283 = DIRECTION ( 'NONE',  ( 0.000000000000000000, 0.000000000000000000, -1.000000000000000000 ) ) ;
#284 = VERTEX_POINT ( 'NONE', #672 ) ;
#285 = VERTEX_POINT ( 'NONE', #453 ) ;
#286 = CIRCLE ( 'NONE', #447, 0.03999999999999999389 ) ;
#287 = DIRECTION ( 'NONE',  ( 0.000000000000000000, 0.000000000000000000, 1.000000000000000000 ) ) ;
#288 = VECTOR ( 'NONE', #921, 1000.000000000000000 ) ;
#289 = DIRECTION ( 'NONE',  ( -0.000000000000000000, -0.000000000000000000, -1.000000000000000000 ) ) ;
#290 = CIRCLE ( 'NONE', #706, 0.03999999999999999389 ) ;
#291 = CARTESIAN_POINT ( 'NONE',  ( 0.000000000000000000, 0.000000000000000000, 0.000000000000000000 ) ) ;
#292 = ORIENTED_EDGE ( 'NONE', *, *, #523, .F. ) ;
#293 = ORIENTED_EDGE ( 'NONE', *, *, #80, .T. ) ;
#294 = FACE_OUTER_BOUND ( 'NONE', #38, .T. ) ;
#295 =( GEOMETRIC_REPRESENTATION_CONTEXT ( 3 ) GLOBAL_UNCERTAINTY_ASSIGNED_CONTEXT ( ( #1032 ) ) GLOBAL_UNIT_ASSIGNED_CONTEXT ( ( #34, #822, #547 ) ) REPRESENTATION_CONTEXT ( 'NONE', 'WORKASPACE' ) );
#296 = EDGE_CURVE ( 'NONE', #138, #318, #863, .T. ) ;
#297 = CARTESIAN_POINT ( 'NONE',  ( -6.505213034913035232E-17, 0.9100000000000000311, 0.3600000000000002642 ) ) ;
#298 = DIRECTION ( 'NONE',  ( 0.000000000000000000, 0.000000000000000000, 1.000000000000000000 ) ) ;
#299 = CARTESIAN_POINT ( 'NONE',  ( 0.5000000000000000000, 0.9100000000000000311, -0.3999999999999998557 ) ) ;
#300 = EDGE_LOOP ( 'NONE', ( #431, #129, #1053, #1017, #1110, #118, #1146, #947 ) ) ;
#301 = VERTEX_POINT ( 'NONE', #870 ) ;
#302 = CARTESIAN_POINT ( 'NONE',  ( 0.5000000000000001110, 0.9100000000000000311, 0.3600000000000001532 ) ) ;
#303 =( NAMED_UNIT ( * ) PLANE_ANGLE_UNIT ( ) SI_UNIT ( $, .RADIAN. ) );
#304 = EDGE_CURVE ( 'NONE', #873, #455, #1256, .T. ) ;
#305 = ADVANCED_BREP_SHAPE_REPRESENTATION ( 'MLF1608A1R2J', ( #739, #736, #310, #270 ), #1107 ) ;
#306 = DIRECTION ( 'NONE',  ( -1.000000000000000000, -0.000000000000000000, -0.000000000000000000 ) ) ;
#307 = EDGE_LOOP ( 'NONE', ( #546, #449, #674, #902 ) ) ;
#308 = EDGE_CURVE ( 'NONE', #201, #868, #1120, .T. ) ;
#309 = EDGE_LOOP ( 'NONE', ( #1184, #711, #349, #621 ) ) ;
#310 = MANIFOLD_SOLID_BREP ( 'Boss-Extrude2', #1195 ) ;
#311 = DIRECTION ( 'NONE',  ( 0.000000000000000000, 0.000000000000000000, 1.000000000000000000 ) ) ;
#312 = CIRCLE ( 'NONE', #107, 0.009999999999999972453 ) ;
#313 = AXIS2_PLACEMENT_3D ( 'NONE', #151, #831, #42 ) ;
#314 = DIRECTION ( 'NONE',  ( 1.000000000000000000, 0.000000000000000000, -1.355252715606880789E-16 ) ) ;
#315 = AXIS2_PLACEMENT_3D ( 'NONE', #95, #81, #464 ) ;
#316 = LINE ( 'NONE', #890, #340 ) ;
#317 = ORIENTED_EDGE ( 'NONE', *, *, #721, .T. ) ;
#318 = VERTEX_POINT ( 'NONE', #1272 ) ;
#319 = DIRECTION ( 'NONE',  ( 0.000000000000000000, -1.000000000000000000, 0.000000000000000000 ) ) ;
#320 = LINE ( 'NONE', #405, #411 ) ;
#321 = DIRECTION ( 'NONE',  ( 0.000000000000000000, 0.000000000000000000, -1.000000000000000000 ) ) ;
#322 = ORIENTED_EDGE ( 'NONE', *, *, #1172, .T. ) ;
#323 = DIRECTION ( 'NONE',  ( -1.000000000000000000, 0.000000000000000000, -1.355252715606880789E-16 ) ) ;
#324 = DIRECTION ( 'NONE',  ( 0.000000000000000000, 1.694065894508600875E-15, 1.000000000000000000 ) ) ;
#325 = CYLINDRICAL_SURFACE ( 'NONE', #962, 0.03999999999999999389 ) ;
#326 = ORIENTED_EDGE ( 'NONE', *, *, #1054, .T. ) ;
#327 = PRODUCT_DEFINITION_CONTEXT ( 'detailed design', #1143, 'design' ) ;
#328 = DIRECTION ( 'NONE',  ( -1.000000000000000000, -0.000000000000000000, -0.000000000000000000 ) ) ;
#329 = CARTESIAN_POINT ( 'NONE',  ( 0.5000000000000001110, 0.9499999999999999556, 0.4000000000000001332 ) ) ;
#330 = AXIS2_PLACEMENT_3D ( 'NONE', #1055, #882, #682 ) ;
#331 = MECHANICAL_DESIGN_GEOMETRIC_PRESENTATION_REPRESENTATION (  '', ( #1160 ), #830 ) ;
#332 = VERTEX_POINT ( 'NONE', #163 ) ;
#333 = DIRECTION ( 'NONE',  ( 0.000000000000000000, 0.000000000000000000, 1.000000000000000000 ) ) ;
#334 = CARTESIAN_POINT ( 'NONE',  ( -0.8000000000000000444, 0.9499999999999999556, -0.3599999999999999867 ) ) ;
#335 = EDGE_CURVE ( 'NONE', #344, #762, #368, .T. ) ;
#336 = DIRECTION ( 'NONE',  ( -1.000000000000000000, 0.000000000000000000, -3.614007241618348771E-16 ) ) ;
#337 = EDGE_CURVE ( 'NONE', #762, #55, #1278, .T. ) ;
#338 = ORIENTED_EDGE ( 'NONE', *, *, #227, .F. ) ;
#339 = EDGE_CURVE ( 'NONE', #1048, #285, #458, .T. ) ;
#340 = VECTOR ( 'NONE', #395, 1000.000000000000000 ) ;
#341 = CARTESIAN_POINT ( 'NONE',  ( 0.7600000000000000089, 0.9100000000000000311, 0.000000000000000000 ) ) ;
#342 = CARTESIAN_POINT ( 'NONE',  ( -0.5000000000000000000, 0.04000000000000021594, -0.3999999999999998557 ) ) ;
#343 = ADVANCED_FACE ( 'NONE', ( #564 ), #1064, .F. ) ;
#344 = VERTEX_POINT ( 'NONE', #88 ) ;
#345 = EDGE_CURVE ( 'NONE', #26, #1048, #182, .T. ) ;
#346 = CARTESIAN_POINT ( 'NONE',  ( 0.5000000000000000000, 0.9499999999999999556, -0.3999999999999998557 ) ) ;
#347 = CARTESIAN_POINT ( 'NONE',  ( 1.657454102761746650, 0.9100000000000000311, -0.3599999999999998757 ) ) ;
#348 = DIRECTION ( 'NONE',  ( 0.000000000000000000, 0.000000000000000000, -1.000000000000000000 ) ) ;
#349 = ORIENTED_EDGE ( 'NONE', *, *, #854, .T. ) ;
#350 = AXIS2_PLACEMENT_3D ( 'NONE', #974, #1265, #605 ) ;
#351 = AXIS2_PLACEMENT_3D ( 'NONE', #404, #1001, #114 ) ;
#352 = EDGE_CURVE ( 'NONE', #967, #382, #225, .T. ) ;
#353 = CARTESIAN_POINT ( 'NONE',  ( 0.8000000000000000444, 0.9100000000000000311, -0.3599999999999999867 ) ) ;
#354 = DIRECTION ( 'NONE',  ( 0.000000000000000000, 1.000000000000000000, 0.000000000000000000 ) ) ;
#355 = EDGE_LOOP ( 'NONE', ( #594, #276, #396, #913, #723, #779, #175, #441 ) ) ;
#356 = CARTESIAN_POINT ( 'NONE',  ( 0.5000000000000001110, 0.9100000000000000311, 0.4000000000000001332 ) ) ;
#357 = SPHERICAL_SURFACE ( 'NONE', #1105, 0.04000000000000000083 ) ;
#358 = VECTOR ( 'NONE', #907, 1000.000000000000000 ) ;
#359 =( NAMED_UNIT ( * ) PLANE_ANGLE_UNIT ( ) SI_UNIT ( $, .RADIAN. ) );
#360 = EDGE_CURVE ( 'NONE', #318, #1085, #965, .T. ) ;
#361 = VERTEX_POINT ( 'NONE', #465 ) ;
#362 = DIRECTION ( 'NONE',  ( 1.355252715606880789E-16, 0.000000000000000000, 1.000000000000000000 ) ) ;
#363 = VERTEX_POINT ( 'NONE', #374 ) ;
#364 = FACE_OUTER_BOUND ( 'NONE', #1016, .T. ) ;
#365 = CARTESIAN_POINT ( 'NONE',  ( -0.5000000000000001110, 0.9499999999999999556, 0.4000000000000001332 ) ) ;
#366 = DIRECTION ( 'NONE',  ( 0.000000000000000000, 0.000000000000000000, 1.000000000000000000 ) ) ;
#367 = EDGE_LOOP ( 'NONE', ( #292, #928, #1010, #647 ) ) ;
#368 = CIRCLE ( 'NONE', #655, 0.03999999999999999389 ) ;
#369 = AXIS2_PLACEMENT_3D ( 'NONE', #1073, #981, #268 ) ;
#370 = DIRECTION ( 'NONE',  ( 0.000000000000000000, -1.000000000000000000, 0.000000000000000000 ) ) ;
#371 = ORIENTED_EDGE ( 'NONE', *, *, #570, .F. ) ;
#372 = VECTOR ( 'NONE', #69, 1000.000000000000000 ) ;
#373 = DIRECTION ( 'NONE',  ( -1.000000000000000000, 0.000000000000000000, 0.000000000000000000 ) ) ;
#374 = CARTESIAN_POINT ( 'NONE',  ( -0.5000000000000000000, 0.9100000000000000311, -0.3999999999999998557 ) ) ;
#375 = CARTESIAN_POINT ( 'NONE',  ( -0.8000000000000000444, 0.9100000000000000311, -0.3999999999999999667 ) ) ;
#376 = EDGE_LOOP ( 'NONE', ( #1082, #999, #71, #613 ) ) ;
#377 = PLANE ( 'NONE',  #1102 ) ;
#378 = DIRECTION ( 'NONE',  ( 0.000000000000000000, 0.000000000000000000, 1.000000000000000000 ) ) ;
#379 = DIRECTION ( 'NONE',  ( -1.000000000000000000, -0.000000000000000000, -0.000000000000000000 ) ) ;
#380 = ORIENTED_EDGE ( 'NONE', *, *, #903, .T. ) ;
#381 = LINE ( 'NONE', #1171, #512 ) ;
#382 = VERTEX_POINT ( 'NONE', #772 ) ;
#383 = EDGE_CURVE ( 'NONE', #967, #1221, #878, .T. ) ;
#384 = PLANE ( 'NONE',  #1083 ) ;
#385 = CARTESIAN_POINT ( 'NONE',  ( -0.5000000000000001110, 0.9100000000000000311, 0.3600000000000001532 ) ) ;
#386 = CARTESIAN_POINT ( 'NONE',  ( -0.7600000000000000089, 0.000000000000000000, -0.3599999999999999867 ) ) ;
#387 = ORIENTED_EDGE ( 'NONE', *, *, #757, .T. ) ;
#388 = ORIENTED_EDGE ( 'NONE', *, *, #1067, .F. ) ;
#389 = EDGE_CURVE ( 'NONE', #10, #132, #995, .T. ) ;
#390 = AXIS2_PLACEMENT_3D ( 'NONE', #70, #1250, #274 ) ;
#391 = DIRECTION ( 'NONE',  ( 1.000000000000000000, 0.000000000000000000, -1.355252715606880789E-16 ) ) ;
#392 = VECTOR ( 'NONE', #543, 1000.000000000000000 ) ;
#393 = AXIS2_PLACEMENT_3D ( 'NONE', #802, #691, #1092 ) ;
#394 = CARTESIAN_POINT ( 'NONE',  ( -0.5000000000000000000, 0.03999999999999999389, -0.3599999999999998757 ) ) ;
#395 = DIRECTION ( 'NONE',  ( 1.000000000000000000, 0.000000000000000000, 1.807003620809175125E-16 ) ) ;
#396 = ORIENTED_EDGE ( 'NONE', *, *, #1268, .F. ) ;
#397 = DIRECTION ( 'NONE',  ( -1.000000000000000000, -0.000000000000000000, -0.000000000000000000 ) ) ;
#398 = CARTESIAN_POINT ( 'NONE',  ( -0.7600000000000000089, 0.04000000000000000083, -0.3599999999999999867 ) ) ;
#399 = ADVANCED_FACE ( 'NONE', ( #687 ), #102, .F. ) ;
#400 = FACE_OUTER_BOUND ( 'NONE', #1136, .T. ) ;
#401 = EDGE_LOOP ( 'NONE', ( #626, #580, #808, #499 ) ) ;
#402 = CIRCLE ( 'NONE', #563, 0.03999999999999999389 ) ;
#403 = VERTEX_POINT ( 'NONE', #356 ) ;
#404 = CARTESIAN_POINT ( 'NONE',  ( 0.000000000000000000, 0.000000000000000000, 0.000000000000000000 ) ) ;
#405 = CARTESIAN_POINT ( 'NONE',  ( -0.7600000000000000089, 0.000000000000000000, -0.3999999999999999667 ) ) ;
#406 = CARTESIAN_POINT ( 'NONE',  ( -0.5000000000000001110, 0.9499999999999999556, 0.4000000000000001332 ) ) ;
#407 = ORIENTED_EDGE ( 'NONE', *, *, #941, .F. ) ;
#408 = ORIENTED_EDGE ( 'NONE', *, *, #956, .T. ) ;
#409 = CARTESIAN_POINT ( 'NONE',  ( 0.7600000000000000089, 0.9499999999999999556, -0.3999999999999999667 ) ) ;
#410 = VECTOR ( 'NONE', #370, 1000.000000000000000 ) ;
#411 = VECTOR ( 'NONE', #419, 1000.000000000000000 ) ;
#412 = DIRECTION ( 'NONE',  ( 0.000000000000000000, 0.000000000000000000, 1.000000000000000000 ) ) ;
#413 = AXIS2_PLACEMENT_3D ( 'NONE', #500, #319, #106 ) ;
#414 = ORIENTED_EDGE ( 'NONE', *, *, #339, .F. ) ;
#415 = CARTESIAN_POINT ( 'NONE',  ( 1.657454102761746650, 0.02999999999999999889, -0.3599999999999997091 ) ) ;
#416 = FACE_OUTER_BOUND ( 'NONE', #1211, .T. ) ;
#417 = VERTEX_POINT ( 'NONE', #271 ) ;
#418 = FACE_OUTER_BOUND ( 'NONE', #963, .T. ) ;
#419 = DIRECTION ( 'NONE',  ( -0.000000000000000000, -0.000000000000000000, -1.000000000000000000 ) ) ;
#420 = PRODUCT ( 'MLF1608A1R2J', 'MLF1608A1R2J', '', ( #454 ) ) ;
#421 = CARTESIAN_POINT ( 'NONE',  ( 0.7600000000000000089, 0.9499999999999999556, 0.000000000000000000 ) ) ;
#422 = ORIENTED_EDGE ( 'NONE', *, *, #906, .F. ) ;
#423 =( NAMED_UNIT ( * ) PLANE_ANGLE_UNIT ( ) SI_UNIT ( $, .RADIAN. ) );
#424 = ADVANCED_FACE ( 'NONE', ( #79 ), #377, .T. ) ;
#425 = DIRECTION ( 'NONE',  ( -1.807003620809175125E-16, 0.000000000000000000, -1.000000000000000000 ) ) ;
#426 = VECTOR ( 'NONE', #456, 1000.000000000000000 ) ;
#427 = CARTESIAN_POINT ( 'NONE',  ( -0.5000000000000000000, 0.9100000000000000311, -0.3699999999999998290 ) ) ;
#428 = VECTOR ( 'NONE', #475, 1000.000000000000000 ) ;
#429 = DIRECTION ( 'NONE',  ( 1.000000000000000000, 0.000000000000000000, 0.000000000000000000 ) ) ;
#430 = AXIS2_PLACEMENT_3D ( 'NONE', #1216, #40, #943 ) ;
#431 = ORIENTED_EDGE ( 'NONE', *, *, #121, .T. ) ;
#432 = VECTOR ( 'NONE', #1033, 1000.000000000000000 ) ;
#433 = ADVANCED_FACE ( 'NONE', ( #1156 ), #567, .F. ) ;
#434 = CARTESIAN_POINT ( 'NONE',  ( 0.8000000000000000444, 0.9100000000000000311, 0.4000000000000000777 ) ) ;
#435 = CARTESIAN_POINT ( 'NONE',  ( -0.7600000000000000089, 0.9499999999999999556, 0.4000000000000000777 ) ) ;
#436 = APPLICATION_PROTOCOL_DEFINITION ( 'draft international standard', 'automotive_design', 1998, #1143 ) ;
#437 = EDGE_CURVE ( 'NONE', #937, #1242, #381, .T. ) ;
#438 = ORIENTED_EDGE ( 'NONE', *, *, #17, .T. ) ;
#439 = LINE ( 'NONE', #624, #27 ) ;
#440 = DIRECTION ( 'NONE',  ( 0.000000000000000000, 0.000000000000000000, 1.000000000000000000 ) ) ;
#441 = ORIENTED_EDGE ( 'NONE', *, *, #598, .F. ) ;
#442 = DIRECTION ( 'NONE',  ( 0.000000000000000000, 0.000000000000000000, -1.000000000000000000 ) ) ;
#443 = CARTESIAN_POINT ( 'NONE',  ( 0.5000000000000000000, 0.04000000000000021594, 0.3700000000000001621 ) ) ;
#444 = SPHERICAL_SURFACE ( 'NONE', #615, 0.04000000000000000083 ) ;
#445 = VECTOR ( 'NONE', #1220, 1000.000000000000000 ) ;
#446 = ORIENTED_EDGE ( 'NONE', *, *, #1127, .F. ) ;
#447 = AXIS2_PLACEMENT_3D ( 'NONE', #508, #136, #412 ) ;
#448 = CARTESIAN_POINT ( 'NONE',  ( -1.301042606982604581E-16, 0.9100000000000000311, -0.3599999999999997091 ) ) ;
#449 = ORIENTED_EDGE ( 'NONE', *, *, #245, .F. ) ;
#450 = ADVANCED_FACE ( 'NONE', ( #279 ), #667, .F. ) ;
#451 = CARTESIAN_POINT ( 'NONE',  ( 0.7600000000000000089, 0.03999999999999999389, -0.3999999999999999667 ) ) ;
#452 = CYLINDRICAL_SURFACE ( 'NONE', #127, 0.03999999999999999389 ) ;
#453 = CARTESIAN_POINT ( 'NONE',  ( -0.5000000000000001110, 0.04000000000000021594, 0.4000000000000001332 ) ) ;
#454 = PRODUCT_CONTEXT ( 'NONE', #989, 'mechanical' ) ;
#455 = VERTEX_POINT ( 'NONE', #955 ) ;
#456 = DIRECTION ( 'NONE',  ( 1.000000000000000000, -0.000000000000000000, 3.614007241618348771E-16 ) ) ;
#457 = DIRECTION ( 'NONE',  ( 1.000000000000000000, 0.000000000000000000, 0.000000000000000000 ) ) ;
#458 = LINE ( 'NONE', #365, #1181 ) ;
#459 = CARTESIAN_POINT ( 'NONE',  ( -0.5000000000000000000, 0.000000000000000000, -0.3599999999999997091 ) ) ;
#460 = EDGE_LOOP ( 'NONE', ( #216, #21, #195, #1029 ) ) ;
#461 = DIRECTION ( 'NONE',  ( -1.000000000000000000, 0.000000000000000000, 3.614007241618348771E-16 ) ) ;
#462 = ORIENTED_EDGE ( 'NONE', *, *, #1165, .F. ) ;
#463 = ADVANCED_FACE ( 'NONE', ( #775 ), #660, .T. ) ;
#464 = DIRECTION ( 'NONE',  ( 0.000000000000000000, 0.000000000000000000, 1.000000000000000000 ) ) ;
#465 = CARTESIAN_POINT ( 'NONE',  ( 0.5000000000000001110, 0.04000000000000021594, 0.4000000000000001332 ) ) ;
#466 = FACE_OUTER_BOUND ( 'NONE', #476, .T. ) ;
#467 = ORIENTED_EDGE ( 'NONE', *, *, #146, .F. ) ;
#468 = CIRCLE ( 'NONE', #807, 0.03999999999999999389 ) ;
#469 = VECTOR ( 'NONE', #164, 1000.000000000000000 ) ;
#470 = DIRECTION ( 'NONE',  ( 1.000000000000000000, 0.000000000000000000, 3.614007241618348771E-16 ) ) ;
#471 = AXIS2_PLACEMENT_3D ( 'NONE', #884, #457, #957 ) ;
#472 = DIRECTION ( 'NONE',  ( 1.000000000000000000, 0.000000000000000000, 0.000000000000000000 ) ) ;
#473 = DIRECTION ( 'NONE',  ( -0.000000000000000000, 1.000000000000000000, -0.000000000000000000 ) ) ;
#474 = LINE ( 'NONE', #375, #469 ) ;
#475 = DIRECTION ( 'NONE',  ( -1.000000000000000000, -0.000000000000000000, -0.000000000000000000 ) ) ;
#476 = EDGE_LOOP ( 'NONE', ( #975, #987, #883, #834 ) ) ;
#477 = ADVANCED_FACE ( 'NONE', ( #1068 ), #174, .T. ) ;
#478 = CARTESIAN_POINT ( 'NONE',  ( -0.7600000000000000089, 0.000000000000000000, 0.3600000000000000977 ) ) ;
#479 = ORIENTED_EDGE ( 'NONE', *, *, #1079, .T. ) ;
#480 = LINE ( 'NONE', #281, #874 ) ;
#481 = CARTESIAN_POINT ( 'NONE',  ( -0.7600000000000000089, 0.9100000000000000311, 0.3600000000000000977 ) ) ;
#482 = CARTESIAN_POINT ( 'NONE',  ( -0.8000000000000000444, 0.000000000000000000, 0.3600000000000000977 ) ) ;
#483 = ORIENTED_EDGE ( 'NONE', *, *, #1172, .F. ) ;
#484 = EDGE_CURVE ( 'NONE', #318, #280, #973, .T. ) ;
#485 = VERTEX_POINT ( 'NONE', #73 ) ;
#486 = ADVANCED_FACE ( 'NONE', ( #574 ), #977, .T. ) ;
#487 = DIRECTION ( 'NONE',  ( -1.000000000000000000, 0.000000000000000000, 0.000000000000000000 ) ) ;
#488 = DIRECTION ( 'NONE',  ( 1.000000000000000000, 0.000000000000000000, -1.355252715606880789E-16 ) ) ;
#489 = EDGE_CURVE ( 'NONE', #14, #455, #876, .T. ) ;
#490 = CARTESIAN_POINT ( 'NONE',  ( 0.7600000000000000089, 0.03999999999999999389, 0.3600000000000000977 ) ) ;
#491 = VERTEX_POINT ( 'NONE', #478 ) ;
#492 = DIRECTION ( 'NONE',  ( -1.000000000000000000, -0.000000000000000000, 3.614007241618348771E-16 ) ) ;
#493 = EDGE_CURVE ( 'NONE', #165, #285, #781, .T. ) ;
#494 = AXIS2_PLACEMENT_3D ( 'NONE', #971, #87, #1063 ) ;
#495 = CARTESIAN_POINT ( 'NONE',  ( -0.8000000000000000444, 0.9499999999999999556, 0.4000000000000000777 ) ) ;
#496 = DIRECTION ( 'NONE',  ( 0.000000000000000000, 0.000000000000000000, 1.000000000000000000 ) ) ;
#497 = EDGE_LOOP ( 'NONE', ( #782, #91, #60 ) ) ;
#498 = FACE_OUTER_BOUND ( 'NONE', #460, .T. ) ;
#499 = ORIENTED_EDGE ( 'NONE', *, *, #383, .F. ) ;
#500 = CARTESIAN_POINT ( 'NONE',  ( -0.7600000000000000089, 0.9499999999999999556, -0.3599999999999999867 ) ) ;
#501 = ORIENTED_EDGE ( 'NONE', *, *, #570, .T. ) ;
#502 = ORIENTED_EDGE ( 'NONE', *, *, #1124, .T. ) ;
#503 = AXIS2_PLACEMENT_3D ( 'NONE', #606, #517, #793 ) ;
#504 = EDGE_LOOP ( 'NONE', ( #153, #1231, #978, #142 ) ) ;
#505 = CARTESIAN_POINT ( 'NONE',  ( 0.5000000000000000000, 0.03999999999999999389, 0.3600000000000001532 ) ) ;
#506 = EDGE_CURVE ( 'NONE', #640, #701, #754, .T. ) ;
#507 = FILL_AREA_STYLE_COLOUR ( '', #25 ) ;
#508 = CARTESIAN_POINT ( 'NONE',  ( -0.5000000000000000000, 0.9100000000000000311, -0.3599999999999998757 ) ) ;
#509 = DIRECTION ( 'NONE',  ( 1.355252715606880789E-16, 0.000000000000000000, -1.000000000000000000 ) ) ;
#510 = ORIENTED_EDGE ( 'NONE', *, *, #1130, .T. ) ;
#511 = CARTESIAN_POINT ( 'NONE',  ( -0.5000000000000001110, 0.9499999999999999556, 0.4000000000000001332 ) ) ;
#512 = VECTOR ( 'NONE', #1248, 1000.000000000000000 ) ;
#513 = AXIS2_PLACEMENT_3D ( 'NONE', #865, #872, #1257 ) ;
#514 = CARTESIAN_POINT ( 'NONE',  ( 0.8000000000000000444, 0.03999999999999999389, -0.3999999999999999667 ) ) ;
#515 = DIRECTION ( 'NONE',  ( -1.000000000000000000, -0.000000000000000000, -0.000000000000000000 ) ) ;
#516 = AXIS2_PLACEMENT_3D ( 'NONE', #1159, #472, #378 ) ;
#517 = DIRECTION ( 'NONE',  ( 0.000000000000000000, -1.000000000000000000, 0.000000000000000000 ) ) ;
#518 = VERTEX_POINT ( 'NONE', #582 ) ;
#519 = DIRECTION ( 'NONE',  ( 0.000000000000000000, 0.000000000000000000, -1.000000000000000000 ) ) ;
#520 = CARTESIAN_POINT ( 'NONE',  ( 0.5000000000000000000, 0.03999999999999999389, -0.3599999999999998757 ) ) ;
#521 = DIRECTION ( 'NONE',  ( 1.000000000000000000, 0.000000000000000000, -1.355252715606880789E-16 ) ) ;
#522 = ORIENTED_EDGE ( 'NONE', *, *, #296, .F. ) ;
#523 = EDGE_CURVE ( 'NONE', #683, #1207, #770, .T. ) ;
#524 = ADVANCED_FACE ( 'NONE', ( #66 ), #1151, .T. ) ;
#525 = CIRCLE ( 'NONE', #235, 0.03999999999999999389 ) ;
#526 =( NAMED_UNIT ( * ) SI_UNIT ( $, .STERADIAN. ) SOLID_ANGLE_UNIT ( ) );
#527 = LINE ( 'NONE', #135, #552 ) ;
#528 = CARTESIAN_POINT ( 'NONE',  ( 0.5000000000000000000, 0.9100000000000000311, -0.3599999999999998757 ) ) ;
#529 = VERTEX_POINT ( 'NONE', #1252 ) ;
#530 = EDGE_CURVE ( 'NONE', #47, #272, #468, .T. ) ;
#531 = DIRECTION ( 'NONE',  ( 1.000000000000000000, 0.000000000000000000, 3.614007241618348771E-16 ) ) ;
#532 = ADVANCED_FACE ( 'NONE', ( #498 ), #601, .T. ) ;
#533 = CARTESIAN_POINT ( 'NONE',  ( 0.8000000000000000444, 0.9499999999999999556, 0.4000000000000000777 ) ) ;
#534 = COLOUR_RGB ( '',0.2509803921568627416, 0.2509803921568627416, 0.2509803921568627416 ) ;
#535 = CARTESIAN_POINT ( 'NONE',  ( 1.301042606982604581E-16, 0.9100000000000000311, -0.3599999999999997091 ) ) ;
#536 = AXIS2_PLACEMENT_3D ( 'NONE', #571, #586, #487 ) ;
#537 = CIRCLE ( 'NONE', #1225, 0.03999999999999999389 ) ;
#538 = ORIENTED_EDGE ( 'NONE', *, *, #304, .F. ) ;
#539 = SURFACE_STYLE_FILL_AREA ( #1031 ) ;
#540 = CARTESIAN_POINT ( 'NONE',  ( 0.7600000000000000089, 0.03999999999999999389, 0.3600000000000000977 ) ) ;
#541 = ORIENTED_EDGE ( 'NONE', *, *, #1239, .T. ) ;
#542 = CARTESIAN_POINT ( 'NONE',  ( -0.5000000000000000000, 0.03999999999999999389, 0.3600000000000001532 ) ) ;
#543 = DIRECTION ( 'NONE',  ( -0.000000000000000000, -1.000000000000000000, 0.000000000000000000 ) ) ;
#544 = ADVANCED_FACE ( 'NONE', ( #1215 ), #452, .T. ) ;
#545 = DIRECTION ( 'NONE',  ( 0.000000000000000000, 1.000000000000000000, 0.000000000000000000 ) ) ;
#546 = ORIENTED_EDGE ( 'NONE', *, *, #1165, .T. ) ;
#547 =( NAMED_UNIT ( * ) SI_UNIT ( $, .STERADIAN. ) SOLID_ANGLE_UNIT ( ) );
#548 = DIRECTION ( 'NONE',  ( 0.000000000000000000, 0.000000000000000000, 1.000000000000000000 ) ) ;
#549 =( LENGTH_UNIT ( ) NAMED_UNIT ( * ) SI_UNIT ( .MILLI., .METRE. ) );
#550 = AXIS2_PLACEMENT_3D ( 'NONE', #985, #1087, #1275 ) ;
#551 = ORIENTED_EDGE ( 'NONE', *, *, #946, .T. ) ;
#552 = VECTOR ( 'NONE', #1134, 1000.000000000000000 ) ;
#553 = AXIS2_PLACEMENT_3D ( 'NONE', #217, #212, #614 ) ;
#554 = CARTESIAN_POINT ( 'NONE',  ( 0.5000000000000001110, 0.9499999999999999556, 0.4000000000000001332 ) ) ;
#555 = LINE ( 'NONE', #763, #790 ) ;
#556 = SURFACE_STYLE_FILL_AREA ( #972 ) ;
#557 = CYLINDRICAL_SURFACE ( 'NONE', #161, 0.03999999999999999389 ) ;
#558 = ORIENTED_EDGE ( 'NONE', *, *, #895, .F. ) ;
#559 = EDGE_CURVE ( 'NONE', #886, #518, #680, .T. ) ;
#560 = DIRECTION ( 'NONE',  ( 1.000000000000000000, 0.000000000000000000, 0.000000000000000000 ) ) ;
#561 = ORIENTED_EDGE ( 'NONE', *, *, #360, .T. ) ;
#562 = CARTESIAN_POINT ( 'NONE',  ( 0.7600000000000000089, 0.9100000000000000311, 0.3600000000000000977 ) ) ;
#563 = AXIS2_PLACEMENT_3D ( 'NONE', #540, #1148, #1034 ) ;
#564 = FACE_OUTER_BOUND ( 'NONE', #695, .T. ) ;
#565 = DIRECTION ( 'NONE',  ( 0.000000000000000000, -1.000000000000000000, 0.000000000000000000 ) ) ;
#566 = EDGE_LOOP ( 'NONE', ( #77, #112, #924, #422 ) ) ;
#567 = PLANE ( 'NONE',  #330 ) ;
#568 = LINE ( 'NONE', #184, #49 ) ;
#569 = CARTESIAN_POINT ( 'NONE',  ( -0.8000000000000000444, 0.03999999999999999389, -0.3999999999999999667 ) ) ;
#570 = EDGE_CURVE ( 'NONE', #363, #1106, #286, .T. ) ;
#571 = CARTESIAN_POINT ( 'NONE',  ( -0.7600000000000000089, 0.03999999999999999389, 0.4000000000000000777 ) ) ;
#572 = EDGE_LOOP ( 'NONE', ( #703, #805, #194, #1152 ) ) ;
#573 = AXIS2_PLACEMENT_3D ( 'NONE', #93, #968, #1259 ) ;
#574 = FACE_OUTER_BOUND ( 'NONE', #376, .T. ) ;
#575 = VERTEX_POINT ( 'NONE', #1219 ) ;
#576 = AXIS2_PLACEMENT_3D ( 'NONE', #562, #869, #176 ) ;
#577 = SPHERICAL_SURFACE ( 'NONE', #576, 0.04000000000000000083 ) ;
#578 =( NAMED_UNIT ( * ) SI_UNIT ( $, .STERADIAN. ) SOLID_ANGLE_UNIT ( ) );
#579 = CARTESIAN_POINT ( 'NONE',  ( 0.7600000000000000089, 0.9499999999999999556, -0.3599999999999999867 ) ) ;
#580 = ORIENTED_EDGE ( 'NONE', *, *, #1124, .F. ) ;
#581 = EDGE_CURVE ( 'NONE', #600, #868, #219, .T. ) ;
#582 = CARTESIAN_POINT ( 'NONE',  ( 0.7600000000000000089, 0.000000000000000000, -0.3599999999999999867 ) ) ;
#583 = ORIENTED_EDGE ( 'NONE', *, *, #489, .T. ) ;
#584 = LINE ( 'NONE', #670, #68 ) ;
#585 = DIRECTION ( 'NONE',  ( 0.000000000000000000, 0.000000000000000000, -1.000000000000000000 ) ) ;
#586 = DIRECTION ( 'NONE',  ( 0.000000000000000000, 0.000000000000000000, -1.000000000000000000 ) ) ;
#587 = VECTOR ( 'NONE', #215, 1000.000000000000000 ) ;
#588 = ORIENTED_EDGE ( 'NONE', *, *, #119, .F. ) ;
#589 = EDGE_CURVE ( 'NONE', #10, #1166, #206, .T. ) ;
#590 = EDGE_LOOP ( 'NONE', ( #1111, #541, #858 ) ) ;
#591 = FACE_OUTER_BOUND ( 'NONE', #982, .T. ) ;
#592 = FACE_OUTER_BOUND ( 'NONE', #1247, .T. ) ;
#593 = ORIENTED_EDGE ( 'NONE', *, *, #669, .T. ) ;
#594 = ORIENTED_EDGE ( 'NONE', *, *, #796, .F. ) ;
#595 = VECTOR ( 'NONE', #856, 1000.000000000000000 ) ;
#596 = PLANE ( 'NONE',  #351 ) ;
#597 = AXIS2_PLACEMENT_3D ( 'NONE', #511, #323, #717 ) ;
#598 = EDGE_CURVE ( 'NONE', #529, #201, #1089, .T. ) ;
#599 = DIRECTION ( 'NONE',  ( 1.000000000000000000, 0.000000000000000000, 0.000000000000000000 ) ) ;
#600 = VERTEX_POINT ( 'NONE', #792 ) ;
#601 = CYLINDRICAL_SURFACE ( 'NONE', #1240, 0.03999999999999999389 ) ;
#602 = EDGE_LOOP ( 'NONE', ( #748, #168, #1006, #1274 ) ) ;
#603 = PRODUCT_RELATED_PRODUCT_CATEGORY ( 'part', '', ( #420 ) ) ;
#604 = FACE_OUTER_BOUND ( 'NONE', #248, .T. ) ;
#605 = DIRECTION ( 'NONE',  ( 0.000000000000000000, 0.000000000000000000, -1.000000000000000000 ) ) ;
#606 = CARTESIAN_POINT ( 'NONE',  ( -0.7600000000000000089, 0.03999999999999999389, 0.3600000000000000977 ) ) ;
#607 = VERTEX_POINT ( 'NONE', #193 ) ;
#608 = VERTEX_POINT ( 'NONE', #1081 ) ;
#609 = DIRECTION ( 'NONE',  ( -0.000000000000000000, -0.000000000000000000, -1.000000000000000000 ) ) ;
#610 =( NAMED_UNIT ( * ) SI_UNIT ( $, .STERADIAN. ) SOLID_ANGLE_UNIT ( ) );
#611 = ADVANCED_FACE ( 'NONE', ( #466 ), #678, .T. ) ;
#612 = DIRECTION ( 'NONE',  ( 1.000000000000000000, -0.000000000000000000, 1.355252715606880789E-16 ) ) ;
#613 = ORIENTED_EDGE ( 'NONE', *, *, #619, .F. ) ;
#614 = DIRECTION ( 'NONE',  ( 0.000000000000000000, 0.000000000000000000, 1.000000000000000000 ) ) ;
#615 = AXIS2_PLACEMENT_3D ( 'NONE', #738, #354, #945 ) ;
#616 = AXIS2_PLACEMENT_3D ( 'NONE', #297, #1163, #90 ) ;
#617 = SURFACE_STYLE_FILL_AREA ( #115 ) ;
#618 = AXIS2_PLACEMENT_3D ( 'NONE', #634, #1224, #333 ) ;
#619 = EDGE_CURVE ( 'NONE', #417, #491, #6, .T. ) ;
#620 = DIRECTION ( 'NONE',  ( 1.355252715606880789E-16, 0.000000000000000000, 1.000000000000000000 ) ) ;
#621 = ORIENTED_EDGE ( 'NONE', *, *, #1112, .F. ) ;
#622 = LINE ( 'NONE', #1137, #1060 ) ;
#623 = UNCERTAINTY_MEASURE_WITH_UNIT (LENGTH_MEASURE( 1.000000000000000082E-05 ), #905, 'distance_accuracy_value', 'NONE');
#624 = CARTESIAN_POINT ( 'NONE',  ( -0.8000000000000000444, 0.9100000000000000311, 0.4000000000000000777 ) ) ;
#625 = FACE_OUTER_BOUND ( 'NONE', #355, .T. ) ;
#626 = ORIENTED_EDGE ( 'NONE', *, *, #119, .T. ) ;
#627 = AXIS2_PLACEMENT_3D ( 'NONE', #1246, #137, #63 ) ;
#628 = AXIS2_PLACEMENT_3D ( 'NONE', #1009, #1210, #321 ) ;
#629 = EDGE_CURVE ( 'NONE', #701, #138, #261, .T. ) ;
#630 = DIRECTION ( 'NONE',  ( 0.000000000000000000, -1.000000000000000000, -0.000000000000000000 ) ) ;
#631 = FACE_OUTER_BOUND ( 'NONE', #1238, .T. ) ;
#632 = DIRECTION ( 'NONE',  ( -0.000000000000000000, 0.000000000000000000, 1.000000000000000000 ) ) ;
#633 = ORIENTED_EDGE ( 'NONE', *, *, #589, .F. ) ;
#634 = CARTESIAN_POINT ( 'NONE',  ( -0.7600000000000000089, 0.9100000000000000311, -0.3599999999999999867 ) ) ;
#635 = CYLINDRICAL_SURFACE ( 'NONE', #1021, 0.03999999999999999389 ) ;
#636 = VECTOR ( 'NONE', #85, 1000.000000000000000 ) ;
#637 = FACE_OUTER_BOUND ( 'NONE', #1251, .T. ) ;
#638 = PRESENTATION_LAYER_ASSIGNMENT (  '', '', ( #128 ) ) ;
#639 = VECTOR ( 'NONE', #1113, 1000.000000000000000 ) ;
#640 = VERTEX_POINT ( 'NONE', #386 ) ;
#641 = CARTESIAN_POINT ( 'NONE',  ( -0.7600000000000000089, 0.9499999999999999556, 0.3600000000000000977 ) ) ;
#642 = DIRECTION ( 'NONE',  ( 1.000000000000000000, 0.000000000000000000, -1.807003620809175125E-16 ) ) ;
#643 = DIRECTION ( 'NONE',  ( 1.000000000000000000, 0.000000000000000000, -1.807003620809175125E-16 ) ) ;
#644 = LINE ( 'NONE', #152, #445 ) ;
#645 = ORIENTED_EDGE ( 'NONE', *, *, #629, .F. ) ;
#646 = CARTESIAN_POINT ( 'NONE',  ( 0.8000000000000000444, 0.03999999999999999389, -0.3599999999999999867 ) ) ;
#647 = ORIENTED_EDGE ( 'NONE', *, *, #1014, .F. ) ;
#648 = FACE_OUTER_BOUND ( 'NONE', #84, .T. ) ;
#649 = PLANE ( 'NONE',  #735 ) ;
#650 = ORIENTED_EDGE ( 'NONE', *, *, #493, .T. ) ;
#651 = EDGE_CURVE ( 'NONE', #1085, #363, #474, .T. ) ;
#652 = DIRECTION ( 'NONE',  ( 1.000000000000000000, 0.000000000000000000, -3.614007241618348771E-16 ) ) ;
#653 = CARTESIAN_POINT ( 'NONE',  ( 0.7600000000000000089, 0.9100000000000000311, -0.3999999999999999667 ) ) ;
#654 = ADVANCED_FACE ( 'NONE', ( #959 ), #1273, .T. ) ;
#655 = AXIS2_PLACEMENT_3D ( 'NONE', #171, #958, #1078 ) ;
#656 = ORIENTED_EDGE ( 'NONE', *, *, #897, .T. ) ;
#657 = AXIS2_PLACEMENT_3D ( 'NONE', #76, #778, #1175 ) ;
#658 = CIRCLE ( 'NONE', #315, 0.03999999999999999389 ) ;
#659 = EDGE_CURVE ( 'NONE', #1091, #1090, #1279, .T. ) ;
#660 = CYLINDRICAL_SURFACE ( 'NONE', #141, 0.03999999999999999389 ) ;
#661 = ORIENTED_EDGE ( 'NONE', *, *, #903, .F. ) ;
#662 = PLANE ( 'NONE',  #494 ) ;
#663 = DIRECTION ( 'NONE',  ( 1.000000000000000000, -0.000000000000000000, 1.355252715606880789E-16 ) ) ;
#664 = FACE_OUTER_BOUND ( 'NONE', #590, .T. ) ;
#665 = ORIENTED_EDGE ( 'NONE', *, *, #437, .F. ) ;
#666 = ADVANCED_FACE ( 'NONE', ( #879 ), #275, .T. ) ;
#667 = PLANE ( 'NONE',  #1057 ) ;
#668 = EDGE_LOOP ( 'NONE', ( #1076, #64, #656, #633 ) ) ;
#669 = EDGE_CURVE ( 'NONE', #318, #640, #1243, .T. ) ;
#670 = CARTESIAN_POINT ( 'NONE',  ( 1.657454102761746650, 0.9100000000000000311, -0.3699999999999998290 ) ) ;
#671 = VECTOR ( 'NONE', #912, 1000.000000000000000 ) ;
#672 = CARTESIAN_POINT ( 'NONE',  ( -0.7600000000000000089, 0.9499999999999999556, -0.3599999999999999867 ) ) ;
#673 = CARTESIAN_POINT ( 'NONE',  ( 1.657454102761746650, 0.03999999999999999389, 0.3600000000000001532 ) ) ;
#674 = ORIENTED_EDGE ( 'NONE', *, *, #757, .F. ) ;
#675 = ORIENTED_EDGE ( 'NONE', *, *, #806, .T. ) ;
#676 = CARTESIAN_POINT ( 'NONE',  ( -0.7600000000000000089, 0.9499999999999999556, 0.3600000000000000977 ) ) ;
#677 = CARTESIAN_POINT ( 'NONE',  ( -0.8000000000000000444, 0.9100000000000000311, 0.4000000000000000777 ) ) ;
#678 = PLANE ( 'NONE',  #185 ) ;
#679 = ORIENTED_EDGE ( 'NONE', *, *, #339, .T. ) ;
#680 = CIRCLE ( 'NONE', #849, 0.03999999999999999389 ) ;
#681 = CIRCLE ( 'NONE', #809, 0.03999999999999999389 ) ;
#682 = DIRECTION ( 'NONE',  ( 0.000000000000000000, -0.000000000000000000, -1.000000000000000000 ) ) ;
#683 = VERTEX_POINT ( 'NONE', #785 ) ;
#684 = CIRCLE ( 'NONE', #393, 0.03999999999999999389 ) ;
#685 = ADVANCED_FACE ( 'NONE', ( #188 ), #557, .T. ) ;
#686 = FACE_OUTER_BOUND ( 'NONE', #839, .T. ) ;
#687 = FACE_OUTER_BOUND ( 'NONE', #668, .T. ) ;
#688 = CYLINDRICAL_SURFACE ( 'NONE', #536, 0.03999999999999999389 ) ;
#689 = ORIENTED_EDGE ( 'NONE', *, *, #659, .T. ) ;
#690 = ORIENTED_EDGE ( 'NONE', *, *, #1112, .T. ) ;
#691 = DIRECTION ( 'NONE',  ( 0.000000000000000000, 0.000000000000000000, -1.000000000000000000 ) ) ;
#692 = CARTESIAN_POINT ( 'NONE',  ( 0.7600000000000000089, 0.04000000000000000083, 0.3600000000000000977 ) ) ;
#693 = CIRCLE ( 'NONE', #923, 0.03999999999999999389 ) ;
#694 = FACE_OUTER_BOUND ( 'NONE', #1176, .T. ) ;
#695 = EDGE_LOOP ( 'NONE', ( #992, #269, #847, #1004 ) ) ;
#696 = ORIENTED_EDGE ( 'NONE', *, *, #257, .T. ) ;
#697 = DIRECTION ( 'NONE',  ( 0.000000000000000000, 0.000000000000000000, -1.000000000000000000 ) ) ;
#698 = FILL_AREA_STYLE ('',( #1015 ) ) ;
#699 = DIRECTION ( 'NONE',  ( 1.000000000000000000, 0.000000000000000000, 0.000000000000000000 ) ) ;
#700 = EDGE_CURVE ( 'NONE', #485, #762, #243, .T. ) ;
#701 = VERTEX_POINT ( 'NONE', #459 ) ;
#702 = DIRECTION ( 'NONE',  ( -0.000000000000000000, 1.000000000000000000, -0.000000000000000000 ) ) ;
#703 = ORIENTED_EDGE ( 'NONE', *, *, #713, .T. ) ;
#704 =( GEOMETRIC_REPRESENTATION_CONTEXT ( 3 ) GLOBAL_UNCERTAINTY_ASSIGNED_CONTEXT ( ( #35 ) ) GLOBAL_UNIT_ASSIGNED_CONTEXT ( ( #1022, #303, #610 ) ) REPRESENTATION_CONTEXT ( 'NONE', 'WORKASPACE' ) );
#705 = DIRECTION ( 'NONE',  ( 0.000000000000000000, 0.000000000000000000, 1.000000000000000000 ) ) ;
#706 = AXIS2_PLACEMENT_3D ( 'NONE', #1007, #609, #1212 ) ;
#707 = COLOUR_RGB ( '',0.7921568627450980005, 0.8196078431372548767, 0.9333333333333333481 ) ;
#708 = SURFACE_STYLE_FILL_AREA ( #698 ) ;
#709 = LINE ( 'NONE', #1115, #358 ) ;
#710 = ORIENTED_EDGE ( 'NONE', *, *, #845, .T. ) ;
#711 = ORIENTED_EDGE ( 'NONE', *, *, #202, .F. ) ;
#712 = CARTESIAN_POINT ( 'NONE',  ( -0.5000000000000000000, 0.9499999999999999556, -0.3999999999999998557 ) ) ;
#713 = EDGE_CURVE ( 'NONE', #1221, #1085, #681, .T. ) ;
#714 = DIRECTION ( 'NONE',  ( 0.000000000000000000, -0.000000000000000000, -1.000000000000000000 ) ) ;
#715 = PLANE ( 'NONE',  #840 ) ;
#716 = ORIENTED_EDGE ( 'NONE', *, *, #759, .F. ) ;
#717 = DIRECTION ( 'NONE',  ( -1.355252715606880789E-16, 0.000000000000000000, 1.000000000000000000 ) ) ;
#718 = PRODUCT_DEFINITION_SHAPE ( 'NONE', 'NONE',  #239 ) ;
#719 = ADVANCED_FACE ( 'NONE', ( #1182 ), #688, .T. ) ;
#720 = CARTESIAN_POINT ( 'NONE',  ( 0.7600000000000000089, 0.9499999999999999556, 0.3600000000000000977 ) ) ;
#721 = EDGE_CURVE ( 'NONE', #518, #1242, #1039, .T. ) ;
#722 = DIRECTION ( 'NONE',  ( -1.000000000000000000, 0.000000000000000000, 0.000000000000000000 ) ) ;
#723 = ORIENTED_EDGE ( 'NONE', *, *, #1008, .F. ) ;
#724 = CARTESIAN_POINT ( 'NONE',  ( -0.8000000000000000444, 0.9499999999999999556, -0.3999999999999999667 ) ) ;
#725 = CIRCLE ( 'NONE', #65, 0.03999999999999999389 ) ;
#726 = DIRECTION ( 'NONE',  ( -0.000000000000000000, -0.000000000000000000, 1.000000000000000000 ) ) ;
#727 = AXIS2_PLACEMENT_3D ( 'NONE', #724, #230, #531 ) ;
#728 = ADVANCED_FACE ( 'NONE', ( #664 ), #1065, .T. ) ;
#729 = ORIENTED_EDGE ( 'NONE', *, *, #956, .F. ) ;
#730 = SPHERICAL_SURFACE ( 'NONE', #430, 0.04000000000000000083 ) ;
#731 = UNCERTAINTY_MEASURE_WITH_UNIT (LENGTH_MEASURE( 1.000000000000000082E-05 ), #61, 'distance_accuracy_value', 'NONE');
#732 = LINE ( 'NONE', #139, #996 ) ;
#733 = FACE_OUTER_BOUND ( 'NONE', #1157, .T. ) ;
#734 = ORIENTED_EDGE ( 'NONE', *, *, #1094, .T. ) ;
#735 = AXIS2_PLACEMENT_3D ( 'NONE', #131, #1047, #37 ) ;
#736 = MANIFOLD_SOLID_BREP ( 'Mirror3', #755 ) ;
#737 = LINE ( 'NONE', #1236, #143 ) ;
#738 = CARTESIAN_POINT ( 'NONE',  ( -0.7600000000000000089, 0.9100000000000000311, 0.3600000000000000977 ) ) ;
#739 = MANIFOLD_SOLID_BREP ( 'Fillet1', #797 ) ;
#740 = VERTEX_POINT ( 'NONE', #214 ) ;
#741 = EDGE_CURVE ( 'NONE', #491, #640, #320, .T. ) ;
#742 = DIRECTION ( 'NONE',  ( 0.000000000000000000, 0.000000000000000000, -1.000000000000000000 ) ) ;
#743 = DIRECTION ( 'NONE',  ( -1.000000000000000000, -0.000000000000000000, -0.000000000000000000 ) ) ;
#744 = AXIS2_PLACEMENT_3D ( 'NONE', #764, #1174, #1161 ) ;
#745 = LINE ( 'NONE', #421, #1186 ) ;
#746 = VECTOR ( 'NONE', #97, 1000.000000000000000 ) ;
#747 = VECTOR ( 'NONE', #877, 1000.000000000000000 ) ;
#748 = ORIENTED_EDGE ( 'NONE', *, *, #210, .F. ) ;
#749 = AXIS2_PLACEMENT_3D ( 'NONE', #528, #521, #59 ) ;
#750 = SURFACE_SIDE_STYLE ('',( #539 ) ) ;
#751 = LINE ( 'NONE', #1147, #832 ) ;
#752 = CARTESIAN_POINT ( 'NONE',  ( 0.7600000000000000089, 0.9100000000000000311, -0.3599999999999999867 ) ) ;
#753 = ORIENTED_EDGE ( 'NONE', *, *, #1, .T. ) ;
#754 = LINE ( 'NONE', #190, #426 ) ;
#755 = CLOSED_SHELL ( 'NONE', ( #33, #450, #1041, #820, #343, #1088, #864, #157, #544, #990, #1051, #524, #930, #41, #532, #1217, #728, #685 ) ) ;
#756 = EDGE_CURVE ( 'NONE', #1096, #332, #1103, .T. ) ;
#757 = EDGE_CURVE ( 'NONE', #640, #280, #891, .T. ) ;
#758 = FACE_OUTER_BOUND ( 'NONE', #497, .T. ) ;
#759 = EDGE_CURVE ( 'NONE', #607, #47, #1263, .T. ) ;
#760 = ORIENTED_EDGE ( 'NONE', *, *, #629, .T. ) ;
#761 = CARTESIAN_POINT ( 'NONE',  ( -0.7600000000000000089, 0.03999999999999999389, -0.3599999999999999867 ) ) ;
#762 = VERTEX_POINT ( 'NONE', #720 ) ;
#763 = CARTESIAN_POINT ( 'NONE',  ( 1.657454102761746650, 0.9100000000000000311, 0.3700000000000001621 ) ) ;
#764 = CARTESIAN_POINT ( 'NONE',  ( 0.000000000000000000, 0.9499999999999999556, 0.000000000000000000 ) ) ;
#765 = VECTOR ( 'NONE', #632, 1000.000000000000000 ) ;
#766 = AXIS2_PLACEMENT_3D ( 'NONE', #692, #12, #205 ) ;
#767 = ORIENTED_EDGE ( 'NONE', *, *, #1226, .T. ) ;
#768 = VECTOR ( 'NONE', #397, 1000.000000000000000 ) ;
#769 = EDGE_CURVE ( 'NONE', #332, #886, #223, .T. ) ;
#770 = LINE ( 'NONE', #1167, #871 ) ;
#771 = CARTESIAN_POINT ( 'NONE',  ( -0.5000000000000001110, 0.9100000000000000311, 0.4000000000000001332 ) ) ;
#772 = CARTESIAN_POINT ( 'NONE',  ( -0.7600000000000000089, 0.9100000000000000311, 0.4000000000000000777 ) ) ;
#773 = DIRECTION ( 'NONE',  ( 0.000000000000000000, -0.000000000000000000, -1.000000000000000000 ) ) ;
#774 = ORIENTED_EDGE ( 'NONE', *, *, #1204, .T. ) ;
#775 = FACE_OUTER_BOUND ( 'NONE', #401, .T. ) ;
#776 = DIRECTION ( 'NONE',  ( 0.000000000000000000, -1.000000000000000000, 0.000000000000000000 ) ) ;
#777 = DIRECTION ( 'NONE',  ( -1.000000000000000000, 0.000000000000000000, 1.807003620809175125E-16 ) ) ;
#778 = DIRECTION ( 'NONE',  ( -1.000000000000000000, -0.000000000000000000, -0.000000000000000000 ) ) ;
#779 = ORIENTED_EDGE ( 'NONE', *, *, #897, .F. ) ;
#780 = EDGE_CURVE ( 'NONE', #132, #873, #825, .T. ) ;
#781 = LINE ( 'NONE', #1177, #636 ) ;
#782 = ORIENTED_EDGE ( 'NONE', *, *, #1130, .F. ) ;
#783 = FACE_OUTER_BOUND ( 'NONE', #158, .T. ) ;
#784 = DIRECTION ( 'NONE',  ( 0.000000000000000000, 0.000000000000000000, 1.000000000000000000 ) ) ;
#785 = CARTESIAN_POINT ( 'NONE',  ( 0.5000000000000000000, 0.04000000000000021594, -0.3699999999999998290 ) ) ;
#786 = ORIENTED_EDGE ( 'NONE', *, *, #970, .T. ) ;
#787 = VECTOR ( 'NONE', #1237, 1000.000000000000000 ) ;
#788 = AXIS2_PLACEMENT_3D ( 'NONE', #836, #926, #62 ) ;
#789 = ORIENTED_EDGE ( 'NONE', *, *, #121, .F. ) ;
#790 = VECTOR ( 'NONE', #1255, 1000.000000000000000 ) ;
#791 = DIRECTION ( 'NONE',  ( 1.000000000000000000, 0.000000000000000000, -1.355252715606880789E-16 ) ) ;
#792 = CARTESIAN_POINT ( 'NONE',  ( 0.5000000000000000000, 0.9200000000000000400, -0.3599999999999998201 ) ) ;
#793 = DIRECTION ( 'NONE',  ( 0.000000000000000000, 0.000000000000000000, -1.000000000000000000 ) ) ;
#794 = ORIENTED_EDGE ( 'NONE', *, *, #4, .T. ) ;
#795 = CYLINDRICAL_SURFACE ( 'NONE', #413, 0.03999999999999999389 ) ;
#796 = EDGE_CURVE ( 'NONE', #1090, #529, #67, .T. ) ;
#797 = CLOSED_SHELL ( 'NONE', ( #1189, #1230, #799, #83, #433, #611, #654, #988, #486, #251, #837, #133, #463, #719, #477, #1036, #28, #1133 ) ) ;
#798 = LINE ( 'NONE', #110, #1069 ) ;
#799 = ADVANCED_FACE ( 'NONE', ( #197 ), #108, .F. ) ;
#800 = ORIENTED_EDGE ( 'NONE', *, *, #941, .T. ) ;
#801 = EDGE_LOOP ( 'NONE', ( #887, #800, #502, #438 ) ) ;
#802 = CARTESIAN_POINT ( 'NONE',  ( -0.7600000000000000089, 0.9100000000000000311, -0.3599999999999999867 ) ) ;
#803 = SURFACE_STYLE_USAGE ( .BOTH. , #911 ) ;
#804 = CARTESIAN_POINT ( 'NONE',  ( 0.8000000000000000444, 0.03999999999999999389, 0.4000000000000000777 ) ) ;
#805 = ORIENTED_EDGE ( 'NONE', *, *, #360, .F. ) ;
#806 = EDGE_CURVE ( 'NONE', #1221, #280, #246, .T. ) ;
#807 = AXIS2_PLACEMENT_3D ( 'NONE', #490, #702, #1187 ) ;
#808 = ORIENTED_EDGE ( 'NONE', *, *, #1097, .F. ) ;
#809 = AXIS2_PLACEMENT_3D ( 'NONE', #172, #178, #103 ) ;
#810 = FACE_OUTER_BOUND ( 'NONE', #228, .T. ) ;
#811 = CIRCLE ( 'NONE', #917, 0.03999999999999999389 ) ;
#812 = PRESENTATION_STYLE_ASSIGNMENT (( #803 ) ) ;
#813 = CARTESIAN_POINT ( 'NONE',  ( -0.7600000000000000089, 0.04000000000000000083, 0.3600000000000000977 ) ) ;
#814 = ORIENTED_EDGE ( 'NONE', *, *, #1226, .F. ) ;
#815 = DIRECTION ( 'NONE',  ( -1.000000000000000000, -0.000000000000000000, -0.000000000000000000 ) ) ;
#816 = SURFACE_STYLE_USAGE ( .BOTH. , #30 ) ;
#817 = CARTESIAN_POINT ( 'NONE',  ( 1.657454102761746650, 0.9200000000000000400, 0.3600000000000001532 ) ) ;
#818 = CARTESIAN_POINT ( 'NONE',  ( 0.5000000000000001110, 0.9499999999999999556, 0.4000000000000001332 ) ) ;
#819 = ORIENTED_EDGE ( 'NONE', *, *, #892, .F. ) ;
#820 = ADVANCED_FACE ( 'NONE', ( #1227 ), #1026, .F. ) ;
#821 = DIRECTION ( 'NONE',  ( 0.000000000000000000, 0.000000000000000000, -1.000000000000000000 ) ) ;
#822 =( NAMED_UNIT ( * ) PLANE_ANGLE_UNIT ( ) SI_UNIT ( $, .RADIAN. ) );
#823 = UNCERTAINTY_MEASURE_WITH_UNIT (LENGTH_MEASURE( 1.000000000000000082E-05 ), #549, 'distance_accuracy_value', 'NONE');
#824 = EDGE_CURVE ( 'NONE', #608, #1096, #737, .T. ) ;
#825 = LINE ( 'NONE', #1197, #1019 ) ;
#826 = CARTESIAN_POINT ( 'NONE',  ( -1.301042606982604581E-16, 0.9499999999999999556, -0.3599999999999997091 ) ) ;
#827 = ORIENTED_EDGE ( 'NONE', *, *, #1097, .T. ) ;
#828 = AXIS2_PLACEMENT_3D ( 'NONE', #867, #470, #1084 ) ;
#829 = CARTESIAN_POINT ( 'NONE',  ( -0.8000000000000000444, 0.9100000000000000311, -0.3599999999999999867 ) ) ;
#830 =( GEOMETRIC_REPRESENTATION_CONTEXT ( 3 ) GLOBAL_UNCERTAINTY_ASSIGNED_CONTEXT ( ( #623 ) ) GLOBAL_UNIT_ASSIGNED_CONTEXT ( ( #905, #1100, #36 ) ) REPRESENTATION_CONTEXT ( 'NONE', 'WORKASPACE' ) );
#831 = DIRECTION ( 'NONE',  ( -1.000000000000000000, 0.000000000000000000, 1.807003620809175125E-16 ) ) ;
#832 = VECTOR ( 'NONE', #948, 1000.000000000000000 ) ;
#833 = LINE ( 'NONE', #936, #5 ) ;
#834 = ORIENTED_EDGE ( 'NONE', *, *, #619, .T. ) ;
#835 = FACE_OUTER_BOUND ( 'NONE', #1155, .T. ) ;
#836 = CARTESIAN_POINT ( 'NONE',  ( -0.7600000000000000089, 0.04000000000000000083, 0.3600000000000000977 ) ) ;
#837 = ADVANCED_FACE ( 'NONE', ( #147 ), #944, .T. ) ;
#838 = DIRECTION ( 'NONE',  ( 0.000000000000000000, -1.000000000000000000, 0.000000000000000000 ) ) ;
#839 = EDGE_LOOP ( 'NONE', ( #789, #710, #689, #446 ) ) ;
#840 = AXIS2_PLACEMENT_3D ( 'NONE', #818, #488, #620 ) ;
#841 = CYLINDRICAL_SURFACE ( 'NONE', #244, 0.01000000000000002623 ) ;
#842 = DIRECTION ( 'NONE',  ( 0.000000000000000000, 0.000000000000000000, 1.000000000000000000 ) ) ;
#843 = DIRECTION ( 'NONE',  ( 0.000000000000000000, 0.000000000000000000, -1.000000000000000000 ) ) ;
#844 = EDGE_LOOP ( 'NONE', ( #2, #675, #250, #1267 ) ) ;
#845 = EDGE_CURVE ( 'NONE', #301, #1091, #527, .T. ) ;
#846 = APPLICATION_PROTOCOL_DEFINITION ( 'draft international standard', 'automotive_design', 1998, #989 ) ;
#847 = ORIENTED_EDGE ( 'NONE', *, *, #183, .F. ) ;
#848 = LINE ( 'NONE', #1245, #1000 ) ;
#849 = AXIS2_PLACEMENT_3D ( 'NONE', #1228, #1264, #298 ) ;
#850 = DIRECTION ( 'NONE',  ( -3.614007241618348278E-16, 0.000000000000000000, 1.000000000000000000 ) ) ;
#851 = MECHANICAL_DESIGN_GEOMETRIC_PRESENTATION_REPRESENTATION (  '', ( #128 ), #704 ) ;
#852 = AXIS2_PLACEMENT_3D ( 'NONE', #505, #791, #697 ) ;
#853 = ORIENTED_EDGE ( 'NONE', *, *, #581, .F. ) ;
#854 = EDGE_CURVE ( 'NONE', #403, #361, #231, .T. ) ;
#855 = DIRECTION ( 'NONE',  ( 1.000000000000000000, 0.000000000000000000, -1.355252715606880789E-16 ) ) ;
#856 = DIRECTION ( 'NONE',  ( 0.000000000000000000, -1.000000000000000000, -0.000000000000000000 ) ) ;
#857 = FILL_AREA_STYLE_COLOUR ( '', #534 ) ;
#858 = ORIENTED_EDGE ( 'NONE', *, *, #721, .F. ) ;
#859 = DIRECTION ( 'NONE',  ( 3.614007241618348278E-16, 0.000000000000000000, 1.000000000000000000 ) ) ;
#860 = CIRCLE ( 'NONE', #1234, 0.03999999999999999389 ) ;
#861 = ORIENTED_EDGE ( 'NONE', *, *, #759, .T. ) ;
#862 = DIRECTION ( 'NONE',  ( 0.000000000000000000, 0.000000000000000000, -1.000000000000000000 ) ) ;
#863 = LINE ( 'NONE', #569, #24 ) ;
#864 = ADVANCED_FACE ( 'NONE', ( #631 ), #1232, .T. ) ;
#865 = CARTESIAN_POINT ( 'NONE',  ( 0.7600000000000000089, 0.04000000000000000083, -0.3599999999999999867 ) ) ;
#866 = ORIENTED_EDGE ( 'NONE', *, *, #169, .F. ) ;
#867 = CARTESIAN_POINT ( 'NONE',  ( -0.8000000000000000444, 0.03999999999999999389, -0.3599999999999999867 ) ) ;
#868 = VERTEX_POINT ( 'NONE', #57 ) ;
#869 = DIRECTION ( 'NONE',  ( 0.000000000000000000, -1.000000000000000000, 0.000000000000000000 ) ) ;
#870 = CARTESIAN_POINT ( 'NONE',  ( 0.5000000000000000000, 0.02999999999999998501, 0.3600000000000001532 ) ) ;
#871 = VECTOR ( 'NONE', #1269, 1000.000000000000000 ) ;
#872 = DIRECTION ( 'NONE',  ( 0.000000000000000000, -0.000000000000000000, 1.000000000000000000 ) ) ;
#873 = VERTEX_POINT ( 'NONE', #443 ) ;
#874 = VECTOR ( 'NONE', #964, 1000.000000000000000 ) ;
#875 = STYLED_ITEM ( 'NONE', ( #56 ), #305 ) ;
#876 = LINE ( 'NONE', #255, #410 ) ;
#877 = DIRECTION ( 'NONE',  ( 1.000000000000000000, -0.000000000000000000, -1.807003620809175125E-16 ) ) ;
#878 = LINE ( 'NONE', #677, #1037 ) ;
#879 = FACE_OUTER_BOUND ( 'NONE', #504, .T. ) ;
#880 = EDGE_LOOP ( 'NONE', ( #827, #767, #1070 ) ) ;
#881 = PRODUCT_DEFINITION_FORMATION_WITH_SPECIFIED_SOURCE ( 'ANY', '', #420, .NOT_KNOWN. ) ;
#882 = DIRECTION ( 'NONE',  ( 0.000000000000000000, -1.000000000000000000, 0.000000000000000000 ) ) ;
#883 = ORIENTED_EDGE ( 'NONE', *, *, #991, .F. ) ;
#884 = CARTESIAN_POINT ( 'NONE',  ( -0.5000000000000000000, 0.9100000000000000311, 0.3600000000000001532 ) ) ;
#885 = DIRECTION ( 'NONE',  ( 0.000000000000000000, 0.000000000000000000, -1.000000000000000000 ) ) ;
#886 = VERTEX_POINT ( 'NONE', #451 ) ;
#887 = ORIENTED_EDGE ( 'NONE', *, *, #98, .T. ) ;
#888 = LINE ( 'NONE', #222, #229 ) ;
#889 = DIRECTION ( 'NONE',  ( 0.000000000000000000, -1.000000000000000000, 0.000000000000000000 ) ) ;
#890 = CARTESIAN_POINT ( 'NONE',  ( -6.505213034913035232E-17, 0.9499999999999999556, 0.3600000000000002642 ) ) ;
#891 = CIRCLE ( 'NONE', #48, 0.03999999999999999389 ) ;
#892 = EDGE_CURVE ( 'NONE', #518, #1096, #732, .T. ) ;
#893 = ORIENTED_EDGE ( 'NONE', *, *, #1002, .F. ) ;
#894 = VECTOR ( 'NONE', #630, 1000.000000000000000 ) ;
#895 = EDGE_CURVE ( 'NONE', #683, #529, #848, .T. ) ;
#896 = LINE ( 'NONE', #904, #1122 ) ;
#897 = EDGE_CURVE ( 'NONE', #868, #1166, #1128, .T. ) ;
#898 = EDGE_CURVE ( 'NONE', #937, #1188, #144, .T. ) ;
#899 = DIRECTION ( 'NONE',  ( 1.000000000000000000, -0.000000000000000000, 0.000000000000000000 ) ) ;
#900 = CARTESIAN_POINT ( 'NONE',  ( -0.7600000000000000089, 0.9100000000000000311, 0.3600000000000000977 ) ) ;
#901 = ORIENTED_EDGE ( 'NONE', *, *, #700, .F. ) ;
#902 = ORIENTED_EDGE ( 'NONE', *, *, #741, .F. ) ;
#903 = EDGE_CURVE ( 'NONE', #485, #937, #155, .T. ) ;
#904 = CARTESIAN_POINT ( 'NONE',  ( -0.7600000000000000089, 0.9499999999999999556, 0.000000000000000000 ) ) ;
#905 =( LENGTH_UNIT ( ) NAMED_UNIT ( * ) SI_UNIT ( .MILLI., .METRE. ) );
#906 = EDGE_CURVE ( 'NONE', #1048, #382, #439, .T. ) ;
#907 = DIRECTION ( 'NONE',  ( 1.355252715606880789E-16, 0.000000000000000000, 1.000000000000000000 ) ) ;
#908 = ORIENTED_EDGE ( 'NONE', *, *, #72, .T. ) ;
#909 = ORIENTED_EDGE ( 'NONE', *, *, #824, .F. ) ;
#910 = CARTESIAN_POINT ( 'NONE',  ( -0.5000000000000000000, 0.9499999999999999556, -0.3599999999999997091 ) ) ;
#911 = SURFACE_SIDE_STYLE ('',( #617 ) ) ;
#912 = DIRECTION ( 'NONE',  ( -1.355252715606880789E-16, 0.000000000000000000, -1.000000000000000000 ) ) ;
#913 = ORIENTED_EDGE ( 'NONE', *, *, #489, .F. ) ;
#914 = AXIS2_PLACEMENT_3D ( 'NONE', #761, #180, #961 ) ;
#915 = AXIS2_PLACEMENT_3D ( 'NONE', #394, #1191, #1059 ) ;
#916 = DIRECTION ( 'NONE',  ( -1.000000000000000000, 0.000000000000000000, 1.807003620809175125E-16 ) ) ;
#917 = AXIS2_PLACEMENT_3D ( 'NONE', #16, #1099, #203 ) ;
#918 = CIRCLE ( 'NONE', #749, 0.01000000000000002623 ) ;
#919 = CARTESIAN_POINT ( 'NONE',  ( 0.5000000000000001110, 0.9499999999999999556, 0.3600000000000001532 ) ) ;
#920 = ORIENTED_EDGE ( 'NONE', *, *, #213, .F. ) ;
#921 = DIRECTION ( 'NONE',  ( 1.000000000000000000, 0.000000000000000000, -3.614007241618348771E-16 ) ) ;
#922 = CARTESIAN_POINT ( 'NONE',  ( 0.5000000000000000000, 0.03999999999999999389, -0.3599999999999998757 ) ) ;
#923 = AXIS2_PLACEMENT_3D ( 'NONE', #813, #722, #1118 ) ;
#924 = ORIENTED_EDGE ( 'NONE', *, *, #998, .F. ) ;
#925 = DIRECTION ( 'NONE',  ( 0.000000000000000000, -1.000000000000000000, -0.000000000000000000 ) ) ;
#926 = DIRECTION ( 'NONE',  ( 1.000000000000000000, 0.000000000000000000, 0.000000000000000000 ) ) ;
#927 = DIRECTION ( 'NONE',  ( 0.000000000000000000, 1.000000000000000000, -0.000000000000000000 ) ) ;
#928 = ORIENTED_EDGE ( 'NONE', *, *, #895, .T. ) ;
#929 =( GEOMETRIC_REPRESENTATION_CONTEXT ( 3 ) GLOBAL_UNCERTAINTY_ASSIGNED_CONTEXT ( ( #823 ) ) GLOBAL_UNIT_ASSIGNED_CONTEXT ( ( #549, #359, #578 ) ) REPRESENTATION_CONTEXT ( 'NONE', 'WORKASPACE' ) );
#930 = ADVANCED_FACE ( 'NONE', ( #1123 ), #635, .T. ) ;
#931 = COLOUR_RGB ( '',0.7921568627450980005, 0.8196078431372548767, 0.9333333333333333481 ) ;
#932 = CIRCLE ( 'NONE', #162, 0.03999999999999999389 ) ;
#933 = DIRECTION ( 'NONE',  ( -1.355252715606880789E-16, 0.000000000000000000, -1.000000000000000000 ) ) ;
#934 = MECHANICAL_DESIGN_GEOMETRIC_PRESENTATION_REPRESENTATION (  '', ( #875 ), #295 ) ;
#935 = ADVANCED_FACE ( 'NONE', ( #648 ), #841, .T. ) ;
#936 = CARTESIAN_POINT ( 'NONE',  ( -0.8000000000000000444, 0.9499999999999999556, 0.3600000000000000977 ) ) ;
#937 = VERTEX_POINT ( 'NONE', #353 ) ;
#938 = SURFACE_STYLE_USAGE ( .BOTH. , #750 ) ;
#939 = DIRECTION ( 'NONE',  ( -1.000000000000000000, 0.000000000000000000, 0.000000000000000000 ) ) ;
#940 = DIRECTION ( 'NONE',  ( 1.000000000000000000, 0.000000000000000000, 0.000000000000000000 ) ) ;
#941 = EDGE_CURVE ( 'NONE', #1106, #284, #751, .T. ) ;
#942 = ORIENTED_EDGE ( 'NONE', *, *, #296, .T. ) ;
#943 = DIRECTION ( 'NONE',  ( 0.000000000000000000, 0.000000000000000000, 1.000000000000000000 ) ) ;
#944 = SPHERICAL_SURFACE ( 'NONE', #788, 0.04000000000000000083 ) ;
#945 = DIRECTION ( 'NONE',  ( 1.000000000000000000, 0.000000000000000000, 0.000000000000000000 ) ) ;
#946 = EDGE_CURVE ( 'NONE', #361, #608, #537, .T. ) ;
#947 = ORIENTED_EDGE ( 'NONE', *, *, #1179, .T. ) ;
#948 = DIRECTION ( 'NONE',  ( -1.000000000000000000, 0.000000000000000000, -3.614007241618348771E-16 ) ) ;
#949 = AXIS2_PLACEMENT_3D ( 'NONE', #156, #192, #585 ) ;
#950 = DIRECTION ( 'NONE',  ( -1.000000000000000000, -0.000000000000000000, -0.000000000000000000 ) ) ;
#951 = AXIS2_PLACEMENT_3D ( 'NONE', #218, #1218, #1093 ) ;
#952 = DIRECTION ( 'NONE',  ( 0.000000000000000000, 0.000000000000000000, 1.000000000000000000 ) ) ;
#953 = AXIS2_PLACEMENT_3D ( 'NONE', #170, #1077, #287 ) ;
#954 = EDGE_LOOP ( 'NONE', ( #645, #1253, #1074, #522 ) ) ;
#955 = CARTESIAN_POINT ( 'NONE',  ( -0.5000000000000000000, 0.04000000000000021594, 0.3700000000000001621 ) ) ;
#956 = EDGE_CURVE ( 'NONE', #272, #485, #480, .T. ) ;
#957 = DIRECTION ( 'NONE',  ( 0.000000000000000000, 0.000000000000000000, -1.000000000000000000 ) ) ;
#958 = DIRECTION ( 'NONE',  ( -1.000000000000000000, -0.000000000000000000, -0.000000000000000000 ) ) ;
#959 = FACE_OUTER_BOUND ( 'NONE', #566, .T. ) ;
#960 = ORIENTED_EDGE ( 'NONE', *, *, #589, .T. ) ;
#961 = DIRECTION ( 'NONE',  ( 0.000000000000000000, 0.000000000000000000, -1.000000000000000000 ) ) ;
#962 = AXIS2_PLACEMENT_3D ( 'NONE', #208, #220, #599 ) ;
#963 = EDGE_LOOP ( 'NONE', ( #1098, #221, #1011 ) ) ;
#964 = DIRECTION ( 'NONE',  ( -0.000000000000000000, 1.000000000000000000, -0.000000000000000000 ) ) ;
#965 = LINE ( 'NONE', #82, #1158 ) ;
#966 = CARTESIAN_POINT ( 'NONE',  ( -0.5000000000000000000, 0.04000000000000021594, -0.3699999999999998290 ) ) ;
#967 = VERTEX_POINT ( 'NONE', #1086 ) ;
#968 = DIRECTION ( 'NONE',  ( -1.000000000000000000, 0.000000000000000000, -1.807003620809175125E-16 ) ) ;
#969 = ORIENTED_EDGE ( 'NONE', *, *, #259, .T. ) ;
#970 = EDGE_CURVE ( 'NONE', #1188, #983, #658, .T. ) ;
#971 = CARTESIAN_POINT ( 'NONE',  ( 1.657454102761746650, 0.02999999999999999889, 0.3600000000000001532 ) ) ;
#972 = FILL_AREA_STYLE ('',( #857 ) ) ;
#973 = CIRCLE ( 'NONE', #914, 0.03999999999999999389 ) ;
#974 = CARTESIAN_POINT ( 'NONE',  ( 0.7600000000000000089, 0.04000000000000000083, -0.3599999999999999867 ) ) ;
#975 = ORIENTED_EDGE ( 'NONE', *, *, #741, .T. ) ;
#976 = CIRCLE ( 'NONE', #1139, 0.03999999999999999389 ) ;
#977 = CYLINDRICAL_SURFACE ( 'NONE', #573, 0.03999999999999999389 ) ;
#978 = ORIENTED_EDGE ( 'NONE', *, *, #1268, .T. ) ;
#979 = LINE ( 'NONE', #1262, #747 ) ;
#980 = PRESENTATION_STYLE_ASSIGNMENT (( #186 ) ) ;
#981 = DIRECTION ( 'NONE',  ( 0.000000000000000000, 0.000000000000000000, 1.000000000000000000 ) ) ;
#982 = EDGE_LOOP ( 'NONE', ( #1119, #189, #583, #538 ) ) ;
#983 = VERTEX_POINT ( 'NONE', #653 ) ;
#984 = DIRECTION ( 'NONE',  ( 0.000000000000000000, 0.000000000000000000, 1.000000000000000000 ) ) ;
#985 = CARTESIAN_POINT ( 'NONE',  ( 1.657454102761746650, 0.9200000000000000400, -0.3599999999999998201 ) ) ;
#986 = DIRECTION ( 'NONE',  ( -1.000000000000000000, -0.000000000000000000, -1.807003620809175125E-16 ) ) ;
#987 = ORIENTED_EDGE ( 'NONE', *, *, #506, .T. ) ;
#988 = ADVANCED_FACE ( 'NONE', ( #74 ), #101, .T. ) ;
#989 = APPLICATION_CONTEXT ( 'automotive_design' ) ;
#990 = ADVANCED_FACE ( 'NONE', ( #758 ), #577, .T. ) ;
#991 = EDGE_CURVE ( 'NONE', #417, #701, #568, .T. ) ;
#992 = ORIENTED_EDGE ( 'NONE', *, *, #199, .F. ) ;
#993 = CARTESIAN_POINT ( 'NONE',  ( -0.5000000000000000000, 0.9200000000000000400, 0.3600000000000001532 ) ) ;
#994 = CARTESIAN_POINT ( 'NONE',  ( 0.7600000000000000089, 0.03999999999999999389, 0.4000000000000000777 ) ) ;
#995 = CIRCLE ( 'NONE', #949, 0.01000000000000002623 ) ;
#996 = VECTOR ( 'NONE', #252, 1000.000000000000000 ) ;
#997 = ORIENTED_EDGE ( 'NONE', *, *, #651, .T. ) ;
#998 = EDGE_CURVE ( 'NONE', #382, #1200, #1040, .T. ) ;
#999 = ORIENTED_EDGE ( 'NONE', *, *, #493, .F. ) ;
#1000 = VECTOR ( 'NONE', #328, 1000.000000000000000 ) ;
#1001 = DIRECTION ( 'NONE',  ( 0.000000000000000000, -1.000000000000000000, -0.000000000000000000 ) ) ;
#1002 = EDGE_CURVE ( 'NONE', #608, #607, #979, .T. ) ;
#1003 = LINE ( 'NONE', #116, #671 ) ;
#1004 = ORIENTED_EDGE ( 'NONE', *, *, #257, .F. ) ;
#1005 = CARTESIAN_POINT ( 'NONE',  ( 0.8000000000000000444, 0.03999999999999999389, -0.3599999999999999867 ) ) ;
#1006 = ORIENTED_EDGE ( 'NONE', *, *, #1239, .F. ) ;
#1007 = CARTESIAN_POINT ( 'NONE',  ( -0.7600000000000000089, 0.03999999999999999389, 0.3600000000000000977 ) ) ;
#1008 = EDGE_CURVE ( 'NONE', #1166, #14, #187, .T. ) ;
#1009 = CARTESIAN_POINT ( 'NONE',  ( -0.7600000000000000089, 0.04000000000000000083, -0.3599999999999999867 ) ) ;
#1010 = ORIENTED_EDGE ( 'NONE', *, *, #598, .T. ) ;
#1011 = ORIENTED_EDGE ( 'NONE', *, *, #970, .F. ) ;
#1012 = PLANE ( 'NONE',  #597 ) ;
#1013 = ADVANCED_FACE ( 'NONE', ( #686 ), #662, .F. ) ;
#1014 = EDGE_CURVE ( 'NONE', #1207, #201, #584, .T. ) ;
#1015 = FILL_AREA_STYLE_COLOUR ( '', #931 ) ;
#1016 = EDGE_LOOP ( 'NONE', ( #661, #729, #1205, #665 ) ) ;
#1017 = ORIENTED_EDGE ( 'NONE', *, *, #169, .T. ) ;
#1018 = VECTOR ( 'NONE', #838, 1000.000000000000000 ) ;
#1019 = VECTOR ( 'NONE', #1114, 1000.000000000000000 ) ;
#1020 = CARTESIAN_POINT ( 'NONE',  ( 0.8000000000000000444, 0.9100000000000000311, -0.3999999999999999667 ) ) ;
#1021 = AXIS2_PLACEMENT_3D ( 'NONE', #341, #1042, #939 ) ;
#1022 =( LENGTH_UNIT ( ) NAMED_UNIT ( * ) SI_UNIT ( .MILLI., .METRE. ) );
#1023 = DIRECTION ( 'NONE',  ( -0.000000000000000000, -0.000000000000000000, -1.000000000000000000 ) ) ;
#1024 = ORIENTED_EDGE ( 'NONE', *, *, #1030, .F. ) ;
#1025 = CARTESIAN_POINT ( 'NONE',  ( 1.657454102761746650, 0.9100000000000000311, 0.3700000000000001621 ) ) ;
#1026 = PLANE ( 'NONE',  #264 ) ;
#1027 = CARTESIAN_POINT ( 'NONE',  ( 1.657454102761746650, 0.9200000000000000400, -0.3599999999999998201 ) ) ;
#1028 = CARTESIAN_POINT ( 'NONE',  ( 0.5000000000000000000, 0.9100000000000000311, 0.3700000000000001621 ) ) ;
#1029 = ORIENTED_EDGE ( 'NONE', *, *, #892, .T. ) ;
#1030 = EDGE_CURVE ( 'NONE', #132, #14, #555, .T. ) ;
#1031 = FILL_AREA_STYLE ('',( #1038 ) ) ;
#1032 = UNCERTAINTY_MEASURE_WITH_UNIT (LENGTH_MEASURE( 1.000000000000000082E-05 ), #34, 'distance_accuracy_value', 'NONE');
#1033 = DIRECTION ( 'NONE',  ( 0.000000000000000000, 0.000000000000000000, 1.000000000000000000 ) ) ;
#1034 = DIRECTION ( 'NONE',  ( -1.000000000000000000, 0.000000000000000000, 0.000000000000000000 ) ) ;
#1035 = EDGE_LOOP ( 'NONE', ( #467, #1260, #317, #794 ) ) ;
#1036 = ADVANCED_FACE ( 'NONE', ( #1277 ), #256, .T. ) ;
#1037 = VECTOR ( 'NONE', #289, 1000.000000000000000 ) ;
#1038 = FILL_AREA_STYLE_COLOUR ( '', #707 ) ;
#1039 = CIRCLE ( 'NONE', #513, 0.03999999999999999389 ) ;
#1040 = CIRCLE ( 'NONE', #953, 0.03999999999999999389 ) ;
#1041 = ADVANCED_FACE ( 'NONE', ( #364 ), #384, .F. ) ;
#1042 = DIRECTION ( 'NONE',  ( 0.000000000000000000, 0.000000000000000000, 1.000000000000000000 ) ) ;
#1043 = FACE_OUTER_BOUND ( 'NONE', #1280, .T. ) ;
#1044 = ORIENTED_EDGE ( 'NONE', *, *, #199, .T. ) ;
#1045 = LINE ( 'NONE', #346, #894 ) ;
#1046 = CARTESIAN_POINT ( 'NONE',  ( 0.5000000000000001110, 0.9499999999999999556, 0.4000000000000001332 ) ) ;
#1047 = DIRECTION ( 'NONE',  ( 0.000000000000000000, 0.000000000000000000, 1.000000000000000000 ) ) ;
#1048 = VERTEX_POINT ( 'NONE', #771 ) ;
#1049 = ORIENTED_EDGE ( 'NONE', *, *, #259, .F. ) ;
#1050 = DIRECTION ( 'NONE',  ( -1.000000000000000000, -0.000000000000000000, -1.807003620809175125E-16 ) ) ;
#1051 = ADVANCED_FACE ( 'NONE', ( #783 ), #357, .T. ) ;
#1052 = DIRECTION ( 'NONE',  ( 0.000000000000000000, 1.000000000000000000, -0.000000000000000000 ) ) ;
#1053 = ORIENTED_EDGE ( 'NONE', *, *, #523, .T. ) ;
#1054 = EDGE_CURVE ( 'NONE', #983, #99, #1249, .T. ) ;
#1055 = CARTESIAN_POINT ( 'NONE',  ( 0.000000000000000000, 0.9499999999999999556, 0.000000000000000000 ) ) ;
#1056 = DIRECTION ( 'NONE',  ( 1.355252715606880789E-16, 0.000000000000000000, -1.000000000000000000 ) ) ;
#1057 = AXIS2_PLACEMENT_3D ( 'NONE', #160, #262, #461 ) ;
#1058 = AXIS2_PLACEMENT_3D ( 'NONE', #673, #379, #366 ) ;
#1059 = DIRECTION ( 'NONE',  ( 0.000000000000000000, 1.694065894508600875E-15, 1.000000000000000000 ) ) ;
#1060 = VECTOR ( 'NONE', #1144, 1000.000000000000000 ) ;
#1061 = ORIENTED_EDGE ( 'NONE', *, *, #202, .T. ) ;
#1062 = ORIENTED_EDGE ( 'NONE', *, *, #824, .T. ) ;
#1063 = DIRECTION ( 'NONE',  ( 0.000000000000000000, -0.000000000000000000, 1.000000000000000000 ) ) ;
#1064 = PLANE ( 'NONE',  #744 ) ;
#1065 = SPHERICAL_SURFACE ( 'NONE', #350, 0.04000000000000000083 ) ;
#1066 = ORIENTED_EDGE ( 'NONE', *, *, #352, .T. ) ;
#1067 = EDGE_CURVE ( 'NONE', #886, #983, #29, .T. ) ;
#1068 = FACE_OUTER_BOUND ( 'NONE', #954, .T. ) ;
#1069 = VECTOR ( 'NONE', #1023, 1000.000000000000000 ) ;
#1070 = ORIENTED_EDGE ( 'NONE', *, *, #713, .F. ) ;
#1071 = DIRECTION ( 'NONE',  ( -1.000000000000000000, -0.000000000000000000, -0.000000000000000000 ) ) ;
#1072 = CARTESIAN_POINT ( 'NONE',  ( 6.505213034913035232E-17, 0.9499999999999999556, 0.3600000000000002642 ) ) ;
#1073 = CARTESIAN_POINT ( 'NONE',  ( 0.7600000000000000089, 0.9100000000000000311, 0.3600000000000000977 ) ) ;
#1074 = ORIENTED_EDGE ( 'NONE', *, *, #669, .F. ) ;
#1075 = CARTESIAN_POINT ( 'NONE',  ( -0.7600000000000000089, 0.9100000000000000311, 0.000000000000000000 ) ) ;
#1076 = ORIENTED_EDGE ( 'NONE', *, *, #39, .F. ) ;
#1077 = DIRECTION ( 'NONE',  ( -1.000000000000000000, 0.000000000000000000, 0.000000000000000000 ) ) ;
#1078 = DIRECTION ( 'NONE',  ( 0.000000000000000000, 0.000000000000000000, 1.000000000000000000 ) ) ;
#1079 = EDGE_CURVE ( 'NONE', #99, #1214, #811, .T. ) ;
#1080 = VECTOR ( 'NONE', #950, 1000.000000000000000 ) ;
#1081 = CARTESIAN_POINT ( 'NONE',  ( 0.5000000000000001110, 0.000000000000000000, 0.3600000000000001532 ) ) ;
#1082 = ORIENTED_EDGE ( 'NONE', *, *, #72, .F. ) ;
#1083 = AXIS2_PLACEMENT_3D ( 'NONE', #1271, #373, #862 ) ;
#1084 = DIRECTION ( 'NONE',  ( 0.000000000000000000, 0.000000000000000000, -1.000000000000000000 ) ) ;
#1085 = VERTEX_POINT ( 'NONE', #124 ) ;
#1086 = CARTESIAN_POINT ( 'NONE',  ( -0.8000000000000000444, 0.9100000000000000311, 0.3600000000000000977 ) ) ;
#1087 = DIRECTION ( 'NONE',  ( 0.000000000000000000, -1.000000000000000000, 0.000000000000000000 ) ) ;
#1088 = ADVANCED_FACE ( 'NONE', ( #294 ), #596, .T. ) ;
#1089 = LINE ( 'NONE', #966, #746 ) ;
#1090 = VERTEX_POINT ( 'NONE', #1208 ) ;
#1091 = VERTEX_POINT ( 'NONE', #130 ) ;
#1092 = DIRECTION ( 'NONE',  ( -1.000000000000000000, 0.000000000000000000, 0.000000000000000000 ) ) ;
#1093 = DIRECTION ( 'NONE',  ( 0.000000000000000000, 0.000000000000000000, -1.000000000000000000 ) ) ;
#1094 = EDGE_CURVE ( 'NONE', #363, #138, #1108, .T. ) ;
#1095 = CARTESIAN_POINT ( 'NONE',  ( 1.657454102761746650, 0.03999999999999999389, -0.3599999999999998757 ) ) ;
#1096 = VERTEX_POINT ( 'NONE', #120 ) ;
#1097 = EDGE_CURVE ( 'NONE', #1221, #284, #684, .T. ) ;
#1098 = ORIENTED_EDGE ( 'NONE', *, *, #898, .F. ) ;
#1099 = DIRECTION ( 'NONE',  ( 1.000000000000000000, 0.000000000000000000, -1.355252715606880789E-16 ) ) ;
#1100 =( NAMED_UNIT ( * ) PLANE_ANGLE_UNIT ( ) SI_UNIT ( $, .RADIAN. ) );
#1101 = FACE_OUTER_BOUND ( 'NONE', #1035, .T. ) ;
#1102 = AXIS2_PLACEMENT_3D ( 'NONE', #554, #855, #362 ) ;
#1103 = CIRCLE ( 'NONE', #7, 0.03999999999999999389 ) ;
#1104 = EDGE_LOOP ( 'NONE', ( #388, #149, #211, #111 ) ) ;
#1105 = AXIS2_PLACEMENT_3D ( 'NONE', #1153, #1168, #776 ) ;
#1106 = VERTEX_POINT ( 'NONE', #910 ) ;
#1107 =( GEOMETRIC_REPRESENTATION_CONTEXT ( 3 ) GLOBAL_UNCERTAINTY_ASSIGNED_CONTEXT ( ( #731 ) ) GLOBAL_UNIT_ASSIGNED_CONTEXT ( ( #61, #423, #526 ) ) REPRESENTATION_CONTEXT ( 'NONE', 'WORKASPACE' ) );
#1108 = LINE ( 'NONE', #712, #1244 ) ;
#1109 = LINE ( 'NONE', #804, #587 ) ;
#1110 = ORIENTED_EDGE ( 'NONE', *, *, #39, .T. ) ;
#1111 = ORIENTED_EDGE ( 'NONE', *, *, #559, .F. ) ;
#1112 = EDGE_CURVE ( 'NONE', #47, #361, #888, .T. ) ;
#1113 = DIRECTION ( 'NONE',  ( -0.000000000000000000, 1.000000000000000000, -0.000000000000000000 ) ) ;
#1114 = DIRECTION ( 'NONE',  ( 0.000000000000000000, -1.000000000000000000, 0.000000000000000000 ) ) ;
#1115 = CARTESIAN_POINT ( 'NONE',  ( 0.5000000000000000000, 0.9200000000000000400, -0.3599999999999996536 ) ) ;
#1116 = ORIENTED_EDGE ( 'NONE', *, *, #1254, .T. ) ;
#1117 = PLANE ( 'NONE',  #1185 ) ;
#1118 = DIRECTION ( 'NONE',  ( 0.000000000000000000, 0.000000000000000000, 1.000000000000000000 ) ) ;
#1119 = ORIENTED_EDGE ( 'NONE', *, *, #780, .F. ) ;
#1120 = CIRCLE ( 'NONE', #390, 0.01000000000000002623 ) ;
#1121 = DIRECTION ( 'NONE',  ( -1.000000000000000000, 0.000000000000000000, -0.000000000000000000 ) ) ;
#1122 = VECTOR ( 'NONE', #705, 1000.000000000000000 ) ;
#1123 = FACE_OUTER_BOUND ( 'NONE', #263, .T. ) ;
#1124 = EDGE_CURVE ( 'NONE', #284, #1200, #896, .T. ) ;
#1125 = LINE ( 'NONE', #826, #787 ) ;
#1126 = ORIENTED_EDGE ( 'NONE', *, *, #337, .T. ) ;
#1127 = EDGE_CURVE ( 'NONE', #575, #1090, #3, .T. ) ;
#1128 = LINE ( 'NONE', #236, #432 ) ;
#1129 = FACE_OUTER_BOUND ( 'NONE', #367, .T. ) ;
#1130 = EDGE_CURVE ( 'NONE', #485, #344, #89, .T. ) ;
#1131 = AXIS2_PLACEMENT_3D ( 'NONE', #535, #336, #850 ) ;
#1132 = ORIENTED_EDGE ( 'NONE', *, *, #991, .T. ) ;
#1133 = ADVANCED_FACE ( 'NONE', ( #1201 ), #795, .T. ) ;
#1134 = DIRECTION ( 'NONE',  ( -1.000000000000000000, -0.000000000000000000, -0.000000000000000000 ) ) ;
#1135 = CARTESIAN_POINT ( 'NONE',  ( 0.8000000000000000444, 0.03999999999999999389, 0.3600000000000000977 ) ) ;
#1136 = EDGE_LOOP ( 'NONE', ( #969, #650, #414, #1142 ) ) ;
#1137 = CARTESIAN_POINT ( 'NONE',  ( 0.7600000000000000089, 0.9499999999999999556, 0.4000000000000000777 ) ) ;
#1138 = VECTOR ( 'NONE', #283, 1000.000000000000000 ) ;
#1139 = AXIS2_PLACEMENT_3D ( 'NONE', #302, #391, #196 ) ;
#1140 = DIRECTION ( 'NONE',  ( 0.000000000000000000, 0.000000000000000000, -1.000000000000000000 ) ) ;
#1141 = LINE ( 'NONE', #329, #92 ) ;
#1142 = ORIENTED_EDGE ( 'NONE', *, *, #906, .T. ) ;
#1143 = APPLICATION_CONTEXT ( 'automotive_design' ) ;
#1144 = DIRECTION ( 'NONE',  ( 0.000000000000000000, -1.000000000000000000, 0.000000000000000000 ) ) ;
#1145 = ADVANCED_FACE ( 'NONE', ( #604 ), #1196, .T. ) ;
#1146 = ORIENTED_EDGE ( 'NONE', *, *, #780, .T. ) ;
#1147 = CARTESIAN_POINT ( 'NONE',  ( 1.301042606982604581E-16, 0.9499999999999999556, -0.3599999999999997091 ) ) ;
#1148 = DIRECTION ( 'NONE',  ( 0.000000000000000000, 0.000000000000000000, 1.000000000000000000 ) ) ;
#1149 = ORIENTED_EDGE ( 'NONE', *, *, #756, .F. ) ;
#1150 = AXIS2_PLACEMENT_3D ( 'NONE', #1095, #306, #496 ) ;
#1151 = CYLINDRICAL_SURFACE ( 'NONE', #86, 0.03999999999999999389 ) ;
#1152 = ORIENTED_EDGE ( 'NONE', *, *, #806, .F. ) ;
#1153 = CARTESIAN_POINT ( 'NONE',  ( 0.7600000000000000089, 0.04000000000000000083, 0.3600000000000000977 ) ) ;
#1154 = CARTESIAN_POINT ( 'NONE',  ( -0.8000000000000000444, 0.03999999999999999389, -0.3599999999999999867 ) ) ;
#1155 = EDGE_LOOP ( 'NONE', ( #561, #997, #734, #942 ) ) ;
#1156 = FACE_OUTER_BOUND ( 'NONE', #801, .T. ) ;
#1157 = EDGE_LOOP ( 'NONE', ( #371, #209, #814, #407 ) ) ;
#1158 = VECTOR ( 'NONE', #473, 1000.000000000000000 ) ;
#1159 = CARTESIAN_POINT ( 'NONE',  ( -0.7600000000000000089, 0.9100000000000000311, -0.3599999999999999867 ) ) ;
#1160 = STYLED_ITEM ( 'NONE', ( #1209 ), #739 ) ;
#1161 = DIRECTION ( 'NONE',  ( -0.000000000000000000, 0.000000000000000000, -1.000000000000000000 ) ) ;
#1162 = CIRCLE ( 'NONE', #618, 0.03999999999999999389 ) ;
#1163 = DIRECTION ( 'NONE',  ( 1.000000000000000000, 0.000000000000000000, 1.807003620809175125E-16 ) ) ;
#1164 = CIRCLE ( 'NONE', #852, 0.01000000000000002623 ) ;
#1165 = EDGE_CURVE ( 'NONE', #491, #740, #290, .T. ) ;
#1166 = VERTEX_POINT ( 'NONE', #993 ) ;
#1167 = CARTESIAN_POINT ( 'NONE',  ( 0.5000000000000000000, 0.04000000000000021594, -0.3699999999999998290 ) ) ;
#1168 = DIRECTION ( 'NONE',  ( 1.000000000000000000, 0.000000000000000000, 0.000000000000000000 ) ) ;
#1169 = CARTESIAN_POINT ( 'NONE',  ( -0.5000000000000000000, 0.02999999999999999889, 0.3600000000000001532 ) ) ;
#1170 = ORIENTED_EDGE ( 'NONE', *, *, #1014, .T. ) ;
#1171 = CARTESIAN_POINT ( 'NONE',  ( 0.8000000000000000444, 0.9499999999999999556, -0.3599999999999999867 ) ) ;
#1172 = EDGE_CURVE ( 'NONE', #55, #403, #976, .T. ) ;
#1173 = DIRECTION ( 'NONE',  ( 1.000000000000000000, 0.000000000000000000, -1.355252715606880789E-16 ) ) ;
#1174 = DIRECTION ( 'NONE',  ( 0.000000000000000000, -1.000000000000000000, -0.000000000000000000 ) ) ;
#1175 = DIRECTION ( 'NONE',  ( 0.000000000000000000, 0.000000000000000000, 1.000000000000000000 ) ) ;
#1176 = EDGE_LOOP ( 'NONE', ( #338, #191, #242, #558 ) ) ;
#1177 = CARTESIAN_POINT ( 'NONE',  ( -0.5000000000000001110, 0.03999999999999999389, 0.4000000000000001332 ) ) ;
#1178 = ORIENTED_EDGE ( 'NONE', *, *, #98, .F. ) ;
#1179 = EDGE_CURVE ( 'NONE', #873, #301, #1164, .T. ) ;
#1180 = DIRECTION ( 'NONE',  ( 0.000000000000000000, 0.000000000000000000, -1.000000000000000000 ) ) ;
#1181 = VECTOR ( 'NONE', #177, 1000.000000000000000 ) ;
#1182 = FACE_OUTER_BOUND ( 'NONE', #307, .T. ) ;
#1183 = AXIS2_PLACEMENT_3D ( 'NONE', #495, #899, #1140 ) ;
#1184 = ORIENTED_EDGE ( 'NONE', *, *, #1254, .F. ) ;
#1185 = AXIS2_PLACEMENT_3D ( 'NONE', #1025, #519, #1121 ) ;
#1186 = VECTOR ( 'NONE', #440, 1000.000000000000000 ) ;
#1187 = DIRECTION ( 'NONE',  ( 0.000000000000000000, 0.000000000000000000, -1.000000000000000000 ) ) ;
#1188 = VERTEX_POINT ( 'NONE', #1190 ) ;
#1189 = ADVANCED_FACE ( 'NONE', ( #810 ), #1012, .F. ) ;
#1190 = CARTESIAN_POINT ( 'NONE',  ( 0.7600000000000000089, 0.9499999999999999556, -0.3599999999999999867 ) ) ;
#1191 = DIRECTION ( 'NONE',  ( 1.000000000000000000, -0.000000000000000000, 1.355252715606880789E-16 ) ) ;
#1192 = ADVANCED_FACE ( 'NONE', ( #591 ), #1117, .F. ) ;
#1193 = LINE ( 'NONE', #406, #78 ) ;
#1194 = ORIENTED_EDGE ( 'NONE', *, *, #1002, .T. ) ;
#1195 = CLOSED_SHELL ( 'NONE', ( #113, #166, #935, #399, #1145, #1192, #666, #1013, #278, #424 ) ) ;
#1196 = CYLINDRICAL_SURFACE ( 'NONE', #9, 0.01000000000000002623 ) ;
#1197 = CARTESIAN_POINT ( 'NONE',  ( 0.5000000000000000000, 0.9100000000000000311, 0.3700000000000001621 ) ) ;
#1198 = CYLINDRICAL_SURFACE ( 'NONE', #1150, 0.009999999999999972453 ) ;
#1199 = EDGE_LOOP ( 'NONE', ( #479, #696, #786, #326 ) ) ;
#1200 = VERTEX_POINT ( 'NONE', #641 ) ;
#1201 = FACE_OUTER_BOUND ( 'NONE', #572, .T. ) ;
#1202 = DIRECTION ( 'NONE',  ( -0.000000000000000000, 0.000000000000000000, -1.000000000000000000 ) ) ;
#1203 = MECHANICAL_DESIGN_GEOMETRIC_PRESENTATION_REPRESENTATION (  '', ( #159 ), #929 ) ;
#1204 = EDGE_CURVE ( 'NONE', #99, #332, #1045, .T. ) ;
#1205 = ORIENTED_EDGE ( 'NONE', *, *, #4, .F. ) ;
#1206 = VECTOR ( 'NONE', #492, 1000.000000000000000 ) ;
#1207 = VERTEX_POINT ( 'NONE', #150 ) ;
#1208 = CARTESIAN_POINT ( 'NONE',  ( -0.5000000000000000000, 0.02999999999999999889, -0.3599999999999997091 ) ) ;
#1209 = PRESENTATION_STYLE_ASSIGNMENT (( #816 ) ) ;
#1210 = DIRECTION ( 'NONE',  ( 1.000000000000000000, 0.000000000000000000, 0.000000000000000000 ) ) ;
#1211 = EDGE_LOOP ( 'NONE', ( #774, #1149, #909, #15, #1276, #483, #1044, #105 ) ) ;
#1212 = DIRECTION ( 'NONE',  ( 1.000000000000000000, 0.000000000000000000, 0.000000000000000000 ) ) ;
#1213 = CARTESIAN_POINT ( 'NONE',  ( -0.8000000000000000444, 0.9499999999999999556, 0.4000000000000000777 ) ) ;
#1214 = VERTEX_POINT ( 'NONE', #249 ) ;
#1215 = FACE_OUTER_BOUND ( 'NONE', #117, .T. ) ;
#1216 = CARTESIAN_POINT ( 'NONE',  ( 0.7600000000000000089, 0.9100000000000000311, -0.3599999999999999867 ) ) ;
#1217 = ADVANCED_FACE ( 'NONE', ( #418 ), #730, .T. ) ;
#1218 = DIRECTION ( 'NONE',  ( 1.000000000000000000, 0.000000000000000000, 0.000000000000000000 ) ) ;
#1219 = CARTESIAN_POINT ( 'NONE',  ( 0.4999999999999998890, 0.02999999999999999889, -0.3599999999999996536 ) ) ;
#1220 = DIRECTION ( 'NONE',  ( 1.000000000000000000, -0.000000000000000000, -1.807003620809175125E-16 ) ) ;
#1221 = VERTEX_POINT ( 'NONE', #829 ) ;
#1222 = AXIS2_PLACEMENT_3D ( 'NONE', #481, #1052, #784 ) ;
#1223 = PRESENTATION_LAYER_ASSIGNMENT (  '', '', ( #1160 ) ) ;
#1224 = DIRECTION ( 'NONE',  ( -1.000000000000000000, 0.000000000000000000, 0.000000000000000000 ) ) ;
#1225 = AXIS2_PLACEMENT_3D ( 'NONE', #273, #1173, #984 ) ;
#1226 = EDGE_CURVE ( 'NONE', #284, #1085, #1162, .T. ) ;
#1227 = FACE_OUTER_BOUND ( 'NONE', #309, .T. ) ;
#1228 = CARTESIAN_POINT ( 'NONE',  ( 0.7600000000000000089, 0.03999999999999999389, -0.3599999999999999867 ) ) ;
#1229 = LINE ( 'NONE', #237, #765 ) ;
#1230 = ADVANCED_FACE ( 'NONE', ( #835 ), #234, .F. ) ;
#1231 = ORIENTED_EDGE ( 'NONE', *, *, #304, .T. ) ;
#1232 = CYLINDRICAL_SURFACE ( 'NONE', #313, 0.03999999999999999389 ) ;
#1233 = CYLINDRICAL_SURFACE ( 'NONE', #627, 0.03999999999999999389 ) ;
#1234 = AXIS2_PLACEMENT_3D ( 'NONE', #900, #1202, #699 ) ;
#1235 = ORIENTED_EDGE ( 'NONE', *, *, #80, .F. ) ;
#1236 = CARTESIAN_POINT ( 'NONE',  ( 0.5000000000000001110, 0.000000000000000000, 0.4000000000000001332 ) ) ;
#1237 = DIRECTION ( 'NONE',  ( 1.000000000000000000, 0.000000000000000000, -3.614007241618348771E-16 ) ) ;
#1238 = EDGE_LOOP ( 'NONE', ( #322, #1061, #238, #1126 ) ) ;
#1239 = EDGE_CURVE ( 'NONE', #886, #1242, #932, .T. ) ;
#1240 = AXIS2_PLACEMENT_3D ( 'NONE', #1005, #20, #821 ) ;
#1241 = DIRECTION ( 'NONE',  ( 1.000000000000000000, 0.000000000000000000, 0.000000000000000000 ) ) ;
#1242 = VERTEX_POINT ( 'NONE', #646 ) ;
#1243 = CIRCLE ( 'NONE', #657, 0.03999999999999999389 ) ;
#1244 = VECTOR ( 'NONE', #11, 1000.000000000000000 ) ;
#1245 = CARTESIAN_POINT ( 'NONE',  ( 1.657454102761746650, 0.04000000000000021594, -0.3699999999999998290 ) ) ;
#1246 = CARTESIAN_POINT ( 'NONE',  ( 0.7600000000000000089, 0.9499999999999999556, 0.3600000000000000977 ) ) ;
#1247 = EDGE_LOOP ( 'NONE', ( #593, #387, #100 ) ) ;
#1248 = DIRECTION ( 'NONE',  ( 0.000000000000000000, -1.000000000000000000, 0.000000000000000000 ) ) ;
#1249 = LINE ( 'NONE', #1020, #1206 ) ;
#1250 = DIRECTION ( 'NONE',  ( 1.000000000000000000, 0.000000000000000000, 0.000000000000000000 ) ) ;
#1251 = EDGE_LOOP ( 'NONE', ( #1066, #32, #588 ) ) ;
#1252 = CARTESIAN_POINT ( 'NONE',  ( -0.5000000000000000000, 0.04000000000000021594, -0.3699999999999998290 ) ) ;
#1253 = ORIENTED_EDGE ( 'NONE', *, *, #506, .F. ) ;
#1254 = EDGE_CURVE ( 'NONE', #344, #47, #622, .T. ) ;
#1255 = DIRECTION ( 'NONE',  ( -1.000000000000000000, -0.000000000000000000, -0.000000000000000000 ) ) ;
#1256 = LINE ( 'NONE', #267, #1080 ) ;
#1257 = DIRECTION ( 'NONE',  ( 1.000000000000000000, 0.000000000000000000, 0.000000000000000000 ) ) ;
#1258 = ORIENTED_EDGE ( 'NONE', *, *, #58, .F. ) ;
#1259 = DIRECTION ( 'NONE',  ( 0.000000000000000000, 0.000000000000000000, 1.000000000000000000 ) ) ;
#1260 = ORIENTED_EDGE ( 'NONE', *, *, #58, .T. ) ;
#1261 = VECTOR ( 'NONE', #777, 1000.000000000000000 ) ;
#1262 = CARTESIAN_POINT ( 'NONE',  ( 0.8000000000000000444, 0.000000000000000000, 0.3600000000000000977 ) ) ;
#1263 = CIRCLE ( 'NONE', #766, 0.03999999999999999389 ) ;
#1264 = DIRECTION ( 'NONE',  ( -1.000000000000000000, 0.000000000000000000, 0.000000000000000000 ) ) ;
#1265 = DIRECTION ( 'NONE',  ( 1.000000000000000000, 0.000000000000000000, 0.000000000000000000 ) ) ;
#1266 = AXIS2_PLACEMENT_3D ( 'NONE', #542, #1241, #442 ) ;
#1267 = ORIENTED_EDGE ( 'NONE', *, *, #213, .T. ) ;
#1268 = EDGE_CURVE ( 'NONE', #455, #1091, #145, .T. ) ;
#1269 = DIRECTION ( 'NONE',  ( -0.000000000000000000, 1.000000000000000000, 0.000000000000000000 ) ) ;
#1270 = EDGE_LOOP ( 'NONE', ( #753, #293, #462 ) ) ;
#1271 = CARTESIAN_POINT ( 'NONE',  ( 0.8000000000000000444, 0.9499999999999999556, 0.4000000000000000777 ) ) ;
#1272 = CARTESIAN_POINT ( 'NONE',  ( -0.7600000000000000089, 0.03999999999999999389, -0.3999999999999999667 ) ) ;
#1273 = CYLINDRICAL_SURFACE ( 'NONE', #616, 0.03999999999999999389 ) ;
#1274 = ORIENTED_EDGE ( 'NONE', *, *, #1067, .T. ) ;
#1275 = DIRECTION ( 'NONE',  ( 0.000000000000000000, -0.000000000000000000, -1.000000000000000000 ) ) ;
#1276 = ORIENTED_EDGE ( 'NONE', *, *, #854, .F. ) ;
#1277 = FACE_OUTER_BOUND ( 'NONE', #880, .T. ) ;
#1278 = LINE ( 'NONE', #1072, #1261 ) ;
#1279 = LINE ( 'NONE', #1169, #1138 ) ;
#1280 = EDGE_LOOP ( 'NONE', ( #94, #408, #510, #1116 ) ) ;
ENDSEC;
END-ISO-10303-21;
